{
  "extensionsUsed": [
    "KHR_materials_transmission",
    "KHR_materials_clearcoat",
    "KHR_materials_ior",
    "KHR_materials_specular",
    "KHR_materials_emissive_strength",
    "KHR_texture_transform"
  ],
  "accessors": [
    {
      "bufferView": 0,
      "componentType": 5126,
      "count": 10,
      "type": "VEC3",
      "max": [
        -10.35436,
        1.1916068,
        -1.6192143
      ],
      "min": [
        -10.7861595,
        1.1916068,
        -2.9527857
      ]
    },
    {
      "bufferView": 1,
      "componentType": 5125,
      "count": 24,
      "type": "SCALAR",
      "max": [
        9.0
      ],
      "min": [
        0.0
      ]
    },
    {
      "bufferView": 2,
      "componentType": 5126,
      "count": 10,
      "type": "VEC3",
      "max": [
        9.436896E-16,
        -1.0,
        4.4529907E-26
      ],
      "min": [
        7.771561E-16,
        -1.0,
        3.6671228E-26
      ]
    },
    {
      "bufferView": 3,
      "componentType": 5126,
      "count": 10,
      "type": "VEC2",
      "max": [
        0.99853516,
        0.8251777
      ],
      "min": [
        0.018690607,
        0.5074374
      ]
    },
    {
      "bufferView": 4,
      "componentType": 5126,
      "count": 10,
      "type": "VEC3",
      "max": [
        -10.35436,
        1.2043067,
        -1.6192143
      ],
      "min": [
        -10.7861595,
        1.2043067,
        -2.9527857
      ]
    },
    {
      "bufferView": 5,
      "componentType": 5125,
      "count": 24,
      "type": "SCALAR",
      "max": [
        9.0
      ],
      "min": [
        0.0
      ]
    },
    {
      "bufferView": 6,
      "componentType": 5126,
      "count": 10,
      "type": "VEC3",
      "max": [
        -7.771561E-16,
        1.0,
        -3.667146E-26
      ],
      "min": [
        -9.020562E-16,
        1.0,
        -4.256482E-26
      ]
    },
    {
      "bufferView": 7,
      "componentType": 5126,
      "count": 10,
      "type": "VEC2",
      "max": [
        0.99853516,
        0.3484191
      ],
      "min": [
        0.018690607,
        0.03067877
      ]
    },
    {
      "bufferView": 8,
      "componentType": 5126,
      "count": 25,
      "type": "VEC3",
      "max": [
        -10.35436,
        1.2043067,
        -2.9013717
      ],
      "min": [
        -10.7861595,
        1.1916068,
        -2.9527857
      ]
    },
    {
      "bufferView": 9,
      "componentType": 5125,
      "count": 96,
      "type": "SCALAR",
      "max": [
        24.0
      ],
      "min": [
        0.0
      ]
    },
    {
      "bufferView": 10,
      "componentType": 5126,
      "count": 25,
      "type": "VEC3",
      "max": [
        -0.106137104,
        -1.1387848E-10,
        -0.991252
      ],
      "min": [
        -0.1319827,
        -1.2266523E-10,
        -0.9943515
      ]
    },
    {
      "bufferView": 11,
      "componentType": 5126,
      "count": 25,
      "type": "VEC2",
      "max": [
        0.3386835,
        0.023241373
      ],
      "min": [
        0.018690607,
        0.013896069
      ]
    },
    {
      "bufferView": 12,
      "componentType": 5126,
      "count": 19,
      "type": "VEC3",
      "max": [
        -10.7861595,
        1.2043067,
        -1.6706284
      ],
      "min": [
        -10.7861595,
        1.1916068,
        -2.9013717
      ]
    },
    {
      "bufferView": 13,
      "componentType": 5125,
      "count": 78,
      "type": "SCALAR",
      "max": [
        18.0
      ],
      "min": [
        0.0
      ]
    },
    {
      "bufferView": 14,
      "componentType": 5126,
      "count": 19,
      "type": "VEC3",
      "max": [
        -1.0,
        1.3556019E-09,
        -1.9204194E-11
      ],
      "min": [
        -1.0,
        -1.3560566E-09,
        -4.7185367E-11
      ]
    },
    {
      "bufferView": 15,
      "componentType": 5126,
      "count": 19,
      "type": "VEC2",
      "max": [
        0.00788046,
        0.9056432
      ],
      "min": [
        0.0,
        0.0
      ]
    },
    {
      "bufferView": 16,
      "componentType": 5126,
      "count": 24,
      "type": "VEC3",
      "max": [
        -10.35436,
        1.2043067,
        -1.6192143
      ],
      "min": [
        -10.7861595,
        1.1916068,
        -1.6706284
      ]
    },
    {
      "bufferView": 17,
      "componentType": 5125,
      "count": 90,
      "type": "SCALAR",
      "max": [
        23.0
      ],
      "min": [
        0.0
      ]
    },
    {
      "bufferView": 18,
      "componentType": 5126,
      "count": 24,
      "type": "VEC3",
      "max": [
        -0.10613707,
        1.2272437E-10,
        0.9943515
      ],
      "min": [
        -0.13198374,
        1.1385636E-10,
        0.9912519
      ]
    },
    {
      "bufferView": 19,
      "componentType": 5126,
      "count": 24,
      "type": "VEC2",
      "max": [
        0.3386834,
        0.009345303
      ],
      "min": [
        0.018690607,
        0.0
      ]
    },
    {
      "bufferView": 20,
      "componentType": 5126,
      "count": 19,
      "type": "VEC3",
      "max": [
        -10.35436,
        1.2043067,
        -1.6192143
      ],
      "min": [
        -10.35436,
        1.1916068,
        -2.9527857
      ]
    },
    {
      "bufferView": 21,
      "componentType": 5125,
      "count": 78,
      "type": "SCALAR",
      "max": [
        18.0
      ],
      "min": [
        0.0
      ]
    },
    {
      "bufferView": 22,
      "componentType": 5126,
      "count": 19,
      "type": "VEC3",
      "max": [
        1.0,
        1.4036914E-09,
        4.7187143E-11
      ],
      "min": [
        1.0,
        -1.403464E-09,
        2.045386E-11
      ]
    },
    {
      "bufferView": 23,
      "componentType": 5126,
      "count": 19,
      "type": "VEC2",
      "max": [
        0.017225763,
        0.97984457
      ],
      "min": [
        0.009345303,
        0.0
      ]
    },
    {
      "bufferView": 24,
      "componentType": 5126,
      "count": 10,
      "type": "VEC3",
      "max": [
        -10.35436,
        1.1916068,
        2.9436052
      ],
      "min": [
        -10.7861595,
        1.1916068,
        1.6283948
      ]
    },
    {
      "bufferView": 25,
      "componentType": 5125,
      "count": 24,
      "type": "SCALAR",
      "max": [
        9.0
      ],
      "min": [
        0.0
      ]
    },
    {
      "bufferView": 26,
      "componentType": 5126,
      "count": 10,
      "type": "VEC3",
      "max": [
        9.15934E-16,
        -1.0,
        -3.9290604E-26
      ],
      "min": [
        8.326673E-16,
        -1.0,
        -4.3219933E-26
      ]
    },
    {
      "bufferView": 27,
      "componentType": 5126,
      "count": 10,
      "type": "VEC2",
      "max": [
        0.9957551,
        0.34109795
      ],
      "min": [
        0.0095232995,
        0.017305762
      ]
    },
    {
      "bufferView": 28,
      "componentType": 5126,
      "count": 8,
      "type": "VEC3",
      "max": [
        -10.35436,
        1.2043067,
        2.9453294
      ],
      "min": [
        -10.7861595,
        1.2043067,
        1.6266705
      ]
    },
    {
      "bufferView": 29,
      "componentType": 5125,
      "count": 18,
      "type": "SCALAR",
      "max": [
        7.0
      ],
      "min": [
        0.0
      ]
    },
    {
      "bufferView": 30,
      "componentType": 5126,
      "count": 8,
      "type": "VEC3",
      "max": [
        -8.46545E-16,
        1.0,
        4.19105E-26
      ],
      "min": [
        -8.881784E-16,
        1.0,
        3.9945445E-26
      ]
    },
    {
      "bufferView": 31,
      "componentType": 5126,
      "count": 8,
      "type": "VEC2",
      "max": [
        0.99687624,
        0.8339159
      ],
      "min": [
        0.0095232995,
        0.51012367
      ]
    },
    {
      "bufferView": 32,
      "componentType": 5126,
      "count": 13,
      "type": "VEC3",
      "max": [
        -10.35436,
        1.2043067,
        2.9453294
      ],
      "min": [
        -10.35436,
        1.1916068,
        1.6266705
      ]
    },
    {
      "bufferView": 33,
      "componentType": 5125,
      "count": 60,
      "type": "SCALAR",
      "max": [
        12.0
      ],
      "min": [
        0.0
      ]
    },
    {
      "bufferView": 34,
      "componentType": 5126,
      "count": 13,
      "type": "VEC3",
      "max": [
        1.0,
        1.3879999E-09,
        -2.045386E-11
      ],
      "min": [
        1.0,
        -1.3877752E-09,
        -4.7187143E-11
      ]
    },
    {
      "bufferView": 35,
      "componentType": 5126,
      "count": 13,
      "type": "VEC2",
      "max": [
        0.008058456,
        0.9929522
      ],
      "min": [
        0.0,
        0.005582916
      ]
    },
    {
      "bufferView": 36,
      "componentType": 5126,
      "count": 13,
      "type": "VEC3",
      "max": [
        -10.7861595,
        1.2043067,
        2.894361
      ],
      "min": [
        -10.7861595,
        1.1916068,
        1.6776389
      ]
    },
    {
      "bufferView": 37,
      "componentType": 5125,
      "count": 60,
      "type": "SCALAR",
      "max": [
        12.0
      ],
      "min": [
        0.0
      ]
    },
    {
      "bufferView": 38,
      "componentType": 5126,
      "count": 13,
      "type": "VEC3",
      "max": [
        -1.0,
        1.3401467E-09,
        4.7185367E-11
      ],
      "min": [
        -1.0,
        -1.3405952E-09,
        1.9202417E-11
      ]
    },
    {
      "bufferView": 39,
      "componentType": 5126,
      "count": 13,
      "type": "VEC2",
      "max": [
        0.9271591,
        0.0095232995
      ],
      "min": [
        0.014780229,
        0.0
      ]
    }
  ],
  "asset": {
    "version": "2.0"
  },
  "buffers": [
    {
      "uri": "data:application/octet-stream;base64,",
      "byteLength": 120
    },
    {
      "uri": "data:application/octet-stream;base64,",
      "byteLength": 96
    },
    {
      "uri": "data:application/octet-stream;base64,",
      "byteLength": 120
    },
    {
      "uri": "data:application/octet-stream;base64,",
      "byteLength": 80
    },
    {
      "uri": "data:application/octet-stream;base64,",
      "byteLength": 120
    },
    {
      "uri": "data:application/octet-stream;base64,",
      "byteLength": 96
    },
    {
      "uri": "data:application/octet-stream;base64,",
      "byteLength": 120
    },
    {
      "uri": "data:application/octet-stream;base64,",
      "byteLength": 80
    },
    {
      "uri": "data:application/octet-stream;base64,",
      "byteLength": 300
    },
    {
      "uri": "data:application/octet-stream;base64,",
      "byteLength": 384
    },
    {
      "uri": "data:application/octet-stream;base64,",
      "byteLength": 300
    },
    {
      "uri": "data:application/octet-stream;base64,",
      "byteLength": 200
    },
    {
      "uri": "data:application/octet-stream;base64,",
      "byteLength": 228
    },
    {
      "uri": "data:application/octet-stream;base64,",
      "byteLength": 312
    },
    {
      "uri": "data:application/octet-stream;base64,",
      "byteLength": 228
    },
    {
      "uri": "data:application/octet-stream;base64,",
      "byteLength": 152
    },
    {
      "uri": "data:application/octet-stream;base64,",
      "byteLength": 288
    },
    {
      "uri": "data:application/octet-stream;base64,",
      "byteLength": 360
    },
    {
      "uri": "data:application/octet-stream;base64,",
      "byteLength": 288
    },
    {
      "uri": "data:application/octet-stream;base64,",
      "byteLength": 192
    },
    {
      "uri": "data:application/octet-stream;base64,",
      "byteLength": 228
    },
    {
      "uri": "data:application/octet-stream;base64,",
      "byteLength": 312
    },
    {
      "uri": "data:application/octet-stream;base64,",
      "byteLength": 228
    },
    {
      "uri": "data:application/octet-stream;base64,",
      "byteLength": 152
    },
    {
      "uri": "data:application/octet-stream;base64,",
      "byteLength": 120
    },
    {
      "uri": "data:application/octet-stream;base64,",
      "byteLength": 96
    },
    {
      "uri": "data:application/octet-stream;base64,",
      "byteLength": 120
    },
    {
      "uri": "data:application/octet-stream;base64,",
      "byteLength": 80
    },
    {
      "uri": "data:application/octet-stream;base64,",
      "byteLength": 96
    },
    {
      "uri": "data:application/octet-stream;base64,",
      "byteLength": 72
    },
    {
      "uri": "data:application/octet-stream;base64,",
      "byteLength": 96
    },
    {
      "uri": "data:application/octet-stream;base64,",
      "byteLength": 64
    },
    {
      "uri": "data:application/octet-stream;base64,",
      "byteLength": 156
    },
    {
      "uri": "data:application/octet-stream;base64,",
      "byteLength": 240
    },
    {
      "uri": "data:application/octet-stream;base64,",
      "byteLength": 156
    },
    {
      "uri": "data:application/octet-stream;base64,",
      "byteLength": 104
    },
    {
      "uri": "data:application/octet-stream;base64,",
      "byteLength": 156
    },
    {
      "uri": "data:application/octet-stream;base64,",
      "byteLength": 240
    },
    {
      "uri": "data:application/octet-stream;base64,",
      "byteLength": 156
    },
    {
      "uri": "data:application/octet-stream;base64,",
      "byteLength": 104
    }
  ],
  "bufferViews": [
    {
      "buffer": 0,
      "byteLength": 120,
      "target": 34962
    },
    {
      "buffer": 1,
      "byteLength": 96,
      "target": 34963
    },
    {
      "buffer": 2,
      "byteLength": 120,
      "target": 34962
    },
    {
      "buffer": 3,
      "byteLength": 80,
      "target": 34962
    },
    {
      "buffer": 4,
      "byteLength": 120,
      "target": 34962
    },
    {
      "buffer": 5,
      "byteLength": 96,
      "target": 34963
    },
    {
      "buffer": 6,
      "byteLength": 120,
      "target": 34962
    },
    {
      "buffer": 7,
      "byteLength": 80,
      "target": 34962
    },
    {
      "buffer": 8,
      "byteLength": 300,
      "target": 34962
    },
    {
      "buffer": 9,
      "byteLength": 384,
      "target": 34963
    },
    {
      "buffer": 10,
      "byteLength": 300,
      "target": 34962
    },
    {
      "buffer": 11,
      "byteLength": 200,
      "target": 34962
    },
    {
      "buffer": 12,
      "byteLength": 228,
      "target": 34962
    },
    {
      "buffer": 13,
      "byteLength": 312,
      "target": 34963
    },
    {
      "buffer": 14,
      "byteLength": 228,
      "target": 34962
    },
    {
      "buffer": 15,
      "byteLength": 152,
      "target": 34962
    },
    {
      "buffer": 16,
      "byteLength": 288,
      "target": 34962
    },
    {
      "buffer": 17,
      "byteLength": 360,
      "target": 34963
    },
    {
      "buffer": 18,
      "byteLength": 288,
      "target": 34962
    },
    {
      "buffer": 19,
      "byteLength": 192,
      "target": 34962
    },
    {
      "buffer": 20,
      "byteLength": 228,
      "target": 34962
    },
    {
      "buffer": 21,
      "byteLength": 312,
      "target": 34963
    },
    {
      "buffer": 22,
      "byteLength": 228,
      "target": 34962
    },
    {
      "buffer": 23,
      "byteLength": 152,
      "target": 34962
    },
    {
      "buffer": 24,
      "byteLength": 120,
      "target": 34962
    },
    {
      "buffer": 25,
      "byteLength": 96,
      "target": 34963
    },
    {
      "buffer": 26,
      "byteLength": 120,
      "target": 34962
    },
    {
      "buffer": 27,
      "byteLength": 80,
      "target": 34962
    },
    {
      "buffer": 28,
      "byteLength": 96,
      "target": 34962
    },
    {
      "buffer": 29,
      "byteLength": 72,
      "target": 34963
    },
    {
      "buffer": 30,
      "byteLength": 96,
      "target": 34962
    },
    {
      "buffer": 31,
      "byteLength": 64,
      "target": 34962
    },
    {
      "buffer": 32,
      "byteLength": 156,
      "target": 34962
    },
    {
      "buffer": 33,
      "byteLength": 240,
      "target": 34963
    },
    {
      "buffer": 34,
      "byteLength": 156,
      "target": 34962
    },
    {
      "buffer": 35,
      "byteLength": 104,
      "target": 34962
    },
    {
      "buffer": 36,
      "byteLength": 156,
      "target": 34962
    },
    {
      "buffer": 37,
      "byteLength": 240,
      "target": 34963
    },
    {
      "buffer": 38,
      "byteLength": 156,
      "target": 34962
    },
    {
      "buffer": 39,
      "byteLength": 104,
      "target": 34962
    }
  ],
  "materials": [
    {
      "pbrMetallicRoughness": {
        "baseColorFactor": [
          0.8039216,
          0.4392157,
          0.32941177,
          1.0
        ]
      }
    }
  ],
  "meshes": [
    {
      "primitives": [
        {
          "attributes": {
            "POSITION": 0,
            "NORMAL": 2,
            "TEXCOORD_0": 3
          },
          "indices": 1,
          "material": 0
        },
        {
          "attributes": {
            "POSITION": 4,
            "NORMAL": 6,
            "TEXCOORD_0": 7
          },
          "indices": 5,
          "material": 0
        },
        {
          "attributes": {
            "POSITION": 8,
            "NORMAL": 10,
            "TEXCOORD_0": 11
          },
          "indices": 9,
          "material": 0
        },
        {
          "attributes": {
            "POSITION": 12,
            "NORMAL": 14,
            "TEXCOORD_0": 15
          },
          "indices": 13,
          "material": 0
        },
        {
          "attributes": {
            "POSITION": 16,
            "NORMAL": 18,
            "TEXCOORD_0": 19
          },
          "indices": 17,
          "material": 0
        },
        {
          "attributes": {
            "POSITION": 20,
            "NORMAL": 22,
            "TEXCOORD_0": 23
          },
          "indices": 21,
          "material": 0
        }
      ]
    },
    {
      "primitives": [
        {
          "attributes": {
            "POSITION": 24,
            "NORMAL": 26,
            "TEXCOORD_0": 27
          },
          "indices": 25,
          "material": 0
        },
        {
          "attributes": {
            "POSITION": 28,
            "NORMAL": 30,
            "TEXCOORD_0": 31
          },
          "indices": 29,
          "material": 0
        },
        {
          "attributes": {
            "POSITION": 32,
            "NORMAL": 34,
            "TEXCOORD_0": 35
          },
          "indices": 33,
          "material": 0
        },
        {
          "attributes": {
            "POSITION": 36,
            "NORMAL": 38,
            "TEXCOORD_0": 39
          },
          "indices": 37,
          "material": 0
        }
      ]
    }
  ],
  "nodes": [
    {
      "mesh": 0
    },
    {
      "mesh": 1
    }
  ],
  "samplers": [
    {
      "magFilter": 9729,
      "minFilter": 9729
    }
  ],
  "scene": 0,
  "scenes": [
    {
      "nodes": [
        0,
        1
      ],
      "extensions": {}
    }
  ],
  "extensions": {}
}