{
  "extensionsUsed": [
    "KHR_materials_transmission",
    "KHR_materials_clearcoat",
    "KHR_materials_ior",
    "KHR_materials_specular",
    "KHR_materials_emissive_strength",
    "KHR_texture_transform"
  ],
  "accessors": [
    {
      "bufferView": 0,
      "componentType": 5126,
      "count": 66,
      "type": "VEC3",
      "max": [
        -8.4308,
        0.46423396,
        2.3368
      ],
      "min": [
        -8.459237,
        0.3618981,
        2.2352
      ]
    },
    {
      "bufferView": 1,
      "componentType": 5125,
      "count": 192,
      "type": "SCALAR",
      "max": [
        65.0
      ],
      "min": [
        0.0
      ]
    },
    {
      "bufferView": 2,
      "componentType": 5126,
      "count": 66,
      "type": "VEC3",
      "max": [
        0.15643445,
        0.98768836,
        1.0
      ],
      "min": [
        -0.15643445,
        -0.98768836,
        -1.0
      ]
    },
    {
      "bufferView": 3,
      "componentType": 5126,
      "count": 66,
      "type": "VEC2",
      "max": [
        0.019480519,
        0.16293597
      ],
      "min": [
        0.012987013,
        0.0
      ]
    },
    {
      "bufferView": 4,
      "componentType": 5126,
      "count": 32,
      "type": "VEC3",
      "max": [
        -8.4308,
        0.46423396,
        2.3368
      ],
      "min": [
        -8.446693,
        0.3638848,
        2.2352
      ]
    },
    {
      "bufferView": 5,
      "componentType": 5125,
      "count": 90,
      "type": "SCALAR",
      "max": [
        31.0
      ],
      "min": [
        0.0
      ]
    },
    {
      "bufferView": 6,
      "componentType": 5126,
      "count": 32,
      "type": "VEC3",
      "max": [
        0.98768836,
        0.15643445,
        0.0
      ],
      "min": [
        0.98768836,
        0.15643445,
        0.0
      ]
    },
    {
      "bufferView": 7,
      "componentType": 5126,
      "count": 32,
      "type": "VEC2",
      "max": [
        0.06996373,
        0.5519481
      ],
      "min": [
        0.019480519,
        0.5
      ]
    },
    {
      "bufferView": 8,
      "componentType": 5126,
      "count": 96,
      "type": "VEC3",
      "max": [
        -8.443343,
        0.46224722,
        2.3368
      ],
      "min": [
        -8.459237,
        0.3618981,
        2.2352
      ]
    },
    {
      "bufferView": 9,
      "componentType": 5125,
      "count": 288,
      "type": "SCALAR",
      "max": [
        95.0
      ],
      "min": [
        0.0
      ]
    },
    {
      "bufferView": 10,
      "componentType": 5126,
      "count": 96,
      "type": "VEC3",
      "max": [
        -0.98768836,
        -0.15643445,
        -0.0
      ],
      "min": [
        -0.98768836,
        -0.15643445,
        -0.0
      ]
    },
    {
      "bufferView": 11,
      "componentType": 5126,
      "count": 96,
      "type": "VEC2",
      "max": [
        0.06996373,
        0.051948052
      ],
      "min": [
        0.019480519,
        0.0
      ]
    },
    {
      "bufferView": 12,
      "componentType": 5126,
      "count": 82,
      "type": "VEC3",
      "max": [
        -8.449304,
        0.42461634,
        2.2987
      ],
      "min": [
        -10.372455,
        0.09556121,
        2.2733
      ]
    },
    {
      "bufferView": 13,
      "componentType": 5125,
      "count": 240,
      "type": "SCALAR",
      "max": [
        81.0
      ],
      "min": [
        0.0
      ]
    },
    {
      "bufferView": 14,
      "componentType": 5126,
      "count": 82,
      "type": "VEC3",
      "max": [
        0.15643445,
        0.98768836,
        1.0
      ],
      "min": [
        -0.15643445,
        -0.98768836,
        -1.0
      ]
    },
    {
      "bufferView": 15,
      "componentType": 5126,
      "count": 82,
      "type": "VEC2",
      "max": [
        0.11050072,
        0.99853516
      ],
      "min": [
        0.071428575,
        0.0064839944
      ]
    },
    {
      "bufferView": 16,
      "componentType": 5126,
      "count": 16,
      "type": "VEC3",
      "max": [
        -10.368481,
        0.12064847,
        2.2987
      ],
      "min": [
        -10.372455,
        0.09556121,
        2.2733
      ]
    },
    {
      "bufferView": 17,
      "componentType": 5125,
      "count": 42,
      "type": "SCALAR",
      "max": [
        15.0
      ],
      "min": [
        0.0
      ]
    },
    {
      "bufferView": 18,
      "componentType": 5126,
      "count": 16,
      "type": "VEC3",
      "max": [
        -0.98768836,
        -0.15643445,
        -0.0
      ],
      "min": [
        -0.98768836,
        -0.15643445,
        -0.0
      ]
    },
    {
      "bufferView": 19,
      "componentType": 5126,
      "count": 16,
      "type": "VEC2",
      "max": [
        0.011522169,
        0.012987013
      ],
      "min": [
        0.0,
        0.0
      ]
    },
    {
      "bufferView": 20,
      "componentType": 5126,
      "count": 66,
      "type": "VEC3",
      "max": [
        -8.4308,
        0.46423396,
        -2.2352
      ],
      "min": [
        -8.459237,
        0.3618981,
        -2.3368
      ]
    },
    {
      "bufferView": 21,
      "componentType": 5125,
      "count": 192,
      "type": "SCALAR",
      "max": [
        65.0
      ],
      "min": [
        0.0
      ]
    },
    {
      "bufferView": 22,
      "componentType": 5126,
      "count": 66,
      "type": "VEC3",
      "max": [
        0.15643445,
        0.98768836,
        1.0
      ],
      "min": [
        -0.15643445,
        -0.98768836,
        -1.0
      ]
    },
    {
      "bufferView": 23,
      "componentType": 5126,
      "count": 66,
      "type": "VEC2",
      "max": [
        0.019480519,
        0.16293597
      ],
      "min": [
        0.012987013,
        0.0
      ]
    },
    {
      "bufferView": 24,
      "componentType": 5126,
      "count": 32,
      "type": "VEC3",
      "max": [
        -8.4308,
        0.46423396,
        -2.2352
      ],
      "min": [
        -8.446693,
        0.3638848,
        -2.3368
      ]
    },
    {
      "bufferView": 25,
      "componentType": 5125,
      "count": 90,
      "type": "SCALAR",
      "max": [
        31.0
      ],
      "min": [
        0.0
      ]
    },
    {
      "bufferView": 26,
      "componentType": 5126,
      "count": 32,
      "type": "VEC3",
      "max": [
        0.98768836,
        0.15643445,
        0.0
      ],
      "min": [
        0.98768836,
        0.15643445,
        0.0
      ]
    },
    {
      "bufferView": 27,
      "componentType": 5126,
      "count": 32,
      "type": "VEC2",
      "max": [
        0.06996373,
        0.5519481
      ],
      "min": [
        0.019480519,
        0.5
      ]
    },
    {
      "bufferView": 28,
      "componentType": 5126,
      "count": 96,
      "type": "VEC3",
      "max": [
        -8.443343,
        0.46224722,
        -2.2352
      ],
      "min": [
        -8.459237,
        0.3618981,
        -2.3368
      ]
    },
    {
      "bufferView": 29,
      "componentType": 5125,
      "count": 288,
      "type": "SCALAR",
      "max": [
        95.0
      ],
      "min": [
        0.0
      ]
    },
    {
      "bufferView": 30,
      "componentType": 5126,
      "count": 96,
      "type": "VEC3",
      "max": [
        -0.98768836,
        -0.15643445,
        -0.0
      ],
      "min": [
        -0.98768836,
        -0.15643445,
        -0.0
      ]
    },
    {
      "bufferView": 31,
      "componentType": 5126,
      "count": 96,
      "type": "VEC2",
      "max": [
        0.06996373,
        0.051948052
      ],
      "min": [
        0.019480519,
        0.0
      ]
    },
    {
      "bufferView": 32,
      "componentType": 5126,
      "count": 82,
      "type": "VEC3",
      "max": [
        -8.449304,
        0.42461634,
        -2.2733
      ],
      "min": [
        -10.372455,
        0.09556121,
        -2.2987
      ]
    },
    {
      "bufferView": 33,
      "componentType": 5125,
      "count": 240,
      "type": "SCALAR",
      "max": [
        81.0
      ],
      "min": [
        0.0
      ]
    },
    {
      "bufferView": 34,
      "componentType": 5126,
      "count": 82,
      "type": "VEC3",
      "max": [
        0.15643445,
        0.98768836,
        1.0
      ],
      "min": [
        -0.15643445,
        -0.98768836,
        -1.0
      ]
    },
    {
      "bufferView": 35,
      "componentType": 5126,
      "count": 82,
      "type": "VEC2",
      "max": [
        0.11050072,
        0.99853516
      ],
      "min": [
        0.071428575,
        0.0064839944
      ]
    },
    {
      "bufferView": 36,
      "componentType": 5126,
      "count": 16,
      "type": "VEC3",
      "max": [
        -10.368481,
        0.12064847,
        -2.2733
      ],
      "min": [
        -10.372455,
        0.09556121,
        -2.2987
      ]
    },
    {
      "bufferView": 37,
      "componentType": 5125,
      "count": 42,
      "type": "SCALAR",
      "max": [
        15.0
      ],
      "min": [
        0.0
      ]
    },
    {
      "bufferView": 38,
      "componentType": 5126,
      "count": 16,
      "type": "VEC3",
      "max": [
        -0.98768836,
        -0.15643445,
        -0.0
      ],
      "min": [
        -0.98768836,
        -0.15643445,
        -0.0
      ]
    },
    {
      "bufferView": 39,
      "componentType": 5126,
      "count": 16,
      "type": "VEC2",
      "max": [
        0.011522169,
        0.012987013
      ],
      "min": [
        0.0,
        0.0
      ]
    }
  ],
  "asset": {
    "version": "2.0"
  },
  "buffers": [
    {
      "uri": "data:application/octet-stream;base64,",
      "byteLength": 792
    },
    {
      "uri": "data:application/octet-stream;base64,",
      "byteLength": 768
    },
    {
      "uri": "data:application/octet-stream;base64,",
      "byteLength": 792
    },
    {
      "uri": "data:application/octet-stream;base64,",
      "byteLength": 528
    },
    {
      "uri": "data:application/octet-stream;base64,",
      "byteLength": 384
    },
    {
      "uri": "data:application/octet-stream;base64,",
      "byteLength": 360
    },
    {
      "uri": "data:application/octet-stream;base64,",
      "byteLength": 384
    },
    {
      "uri": "data:application/octet-stream;base64,",
      "byteLength": 256
    },
    {
      "uri": "data:application/octet-stream;base64,",
      "byteLength": 1152
    },
    {
      "uri": "data:application/octet-stream;base64,",
      "byteLength": 1152
    },
    {
      "uri": "data:application/octet-stream;base64,",
      "byteLength": 1152
    },
    {
      "uri": "data:application/octet-stream;base64,",
      "byteLength": 768
    },
    {
      "uri": "data:application/octet-stream;base64,",
      "byteLength": 984
    },
    {
      "uri": "data:application/octet-stream;base64,",
      "byteLength": 960
    },
    {
      "uri": "data:application/octet-stream;base64,",
      "byteLength": 984
    },
    {
      "uri": "data:application/octet-stream;base64,",
      "byteLength": 656
    },
    {
      "uri": "data:application/octet-stream;base64,",
      "byteLength": 192
    },
    {
      "uri": "data:application/octet-stream;base64,",
      "byteLength": 168
    },
    {
      "uri": "data:application/octet-stream;base64,",
      "byteLength": 192
    },
    {
      "uri": "data:application/octet-stream;base64,",
      "byteLength": 128
    },
    {
      "uri": "data:application/octet-stream;base64,",
      "byteLength": 792
    },
    {
      "uri": "data:application/octet-stream;base64,",
      "byteLength": 768
    },
    {
      "uri": "data:application/octet-stream;base64,",
      "byteLength": 792
    },
    {
      "uri": "data:application/octet-stream;base64,",
      "byteLength": 528
    },
    {
      "uri": "data:application/octet-stream;base64,",
      "byteLength": 384
    },
    {
      "uri": "data:application/octet-stream;base64,",
      "byteLength": 360
    },
    {
      "uri": "data:application/octet-stream;base64,",
      "byteLength": 384
    },
    {
      "uri": "data:application/octet-stream;base64,",
      "byteLength": 256
    },
    {
      "uri": "data:application/octet-stream;base64,",
      "byteLength": 1152
    },
    {
      "uri": "data:application/octet-stream;base64,",
      "byteLength": 1152
    },
    {
      "uri": "data:application/octet-stream;base64,",
      "byteLength": 1152
    },
    {
      "uri": "data:application/octet-stream;base64,",
      "byteLength": 768
    },
    {
      "uri": "data:application/octet-stream;base64,",
      "byteLength": 984
    },
    {
      "uri": "data:application/octet-stream;base64,",
      "byteLength": 960
    },
    {
      "uri": "data:application/octet-stream;base64,",
      "byteLength": 984
    },
    {
      "uri": "data:application/octet-stream;base64,",
      "byteLength": 656
    },
    {
      "uri": "data:application/octet-stream;base64,",
      "byteLength": 192
    },
    {
      "uri": "data:application/octet-stream;base64,",
      "byteLength": 168
    },
    {
      "uri": "data:application/octet-stream;base64,",
      "byteLength": 192
    },
    {
      "uri": "data:application/octet-stream;base64,",
      "byteLength": 128
    }
  ],
  "bufferViews": [
    {
      "buffer": 0,
      "byteLength": 792,
      "target": 34962
    },
    {
      "buffer": 1,
      "byteLength": 768,
      "target": 34963
    },
    {
      "buffer": 2,
      "byteLength": 792,
      "target": 34962
    },
    {
      "buffer": 3,
      "byteLength": 528,
      "target": 34962
    },
    {
      "buffer": 4,
      "byteLength": 384,
      "target": 34962
    },
    {
      "buffer": 5,
      "byteLength": 360,
      "target": 34963
    },
    {
      "buffer": 6,
      "byteLength": 384,
      "target": 34962
    },
    {
      "buffer": 7,
      "byteLength": 256,
      "target": 34962
    },
    {
      "buffer": 8,
      "byteLength": 1152,
      "target": 34962
    },
    {
      "buffer": 9,
      "byteLength": 1152,
      "target": 34963
    },
    {
      "buffer": 10,
      "byteLength": 1152,
      "target": 34962
    },
    {
      "buffer": 11,
      "byteLength": 768,
      "target": 34962
    },
    {
      "buffer": 12,
      "byteLength": 984,
      "target": 34962
    },
    {
      "buffer": 13,
      "byteLength": 960,
      "target": 34963
    },
    {
      "buffer": 14,
      "byteLength": 984,
      "target": 34962
    },
    {
      "buffer": 15,
      "byteLength": 656,
      "target": 34962
    },
    {
      "buffer": 16,
      "byteLength": 192,
      "target": 34962
    },
    {
      "buffer": 17,
      "byteLength": 168,
      "target": 34963
    },
    {
      "buffer": 18,
      "byteLength": 192,
      "target": 34962
    },
    {
      "buffer": 19,
      "byteLength": 128,
      "target": 34962
    },
    {
      "buffer": 20,
      "byteLength": 792,
      "target": 34962
    },
    {
      "buffer": 21,
      "byteLength": 768,
      "target": 34963
    },
    {
      "buffer": 22,
      "byteLength": 792,
      "target": 34962
    },
    {
      "buffer": 23,
      "byteLength": 528,
      "target": 34962
    },
    {
      "buffer": 24,
      "byteLength": 384,
      "target": 34962
    },
    {
      "buffer": 25,
      "byteLength": 360,
      "target": 34963
    },
    {
      "buffer": 26,
      "byteLength": 384,
      "target": 34962
    },
    {
      "buffer": 27,
      "byteLength": 256,
      "target": 34962
    },
    {
      "buffer": 28,
      "byteLength": 1152,
      "target": 34962
    },
    {
      "buffer": 29,
      "byteLength": 1152,
      "target": 34963
    },
    {
      "buffer": 30,
      "byteLength": 1152,
      "target": 34962
    },
    {
      "buffer": 31,
      "byteLength": 768,
      "target": 34962
    },
    {
      "buffer": 32,
      "byteLength": 984,
      "target": 34962
    },
    {
      "buffer": 33,
      "byteLength": 960,
      "target": 34963
    },
    {
      "buffer": 34,
      "byteLength": 984,
      "target": 34962
    },
    {
      "buffer": 35,
      "byteLength": 656,
      "target": 34962
    },
    {
      "buffer": 36,
      "byteLength": 192,
      "target": 34962
    },
    {
      "buffer": 37,
      "byteLength": 168,
      "target": 34963
    },
    {
      "buffer": 38,
      "byteLength": 192,
      "target": 34962
    },
    {
      "buffer": 39,
      "byteLength": 128,
      "target": 34962
    }
  ],
  "materials": [
    {
      "pbrMetallicRoughness": {
        "baseColorFactor": [
          0.54509807,
          0.4745098,
          0.36862746,
          1.0
        ]
      }
    }
  ],
  "meshes": [
    {
      "primitives": [
        {
          "attributes": {
            "POSITION": 0,
            "NORMAL": 2,
            "TEXCOORD_0": 3
          },
          "indices": 1,
          "material": 0
        },
        {
          "attributes": {
            "POSITION": 4,
            "NORMAL": 6,
            "TEXCOORD_0": 7
          },
          "indices": 5,
          "material": 0
        },
        {
          "attributes": {
            "POSITION": 8,
            "NORMAL": 10,
            "TEXCOORD_0": 11
          },
          "indices": 9,
          "material": 0
        },
        {
          "attributes": {
            "POSITION": 12,
            "NORMAL": 14,
            "TEXCOORD_0": 15
          },
          "indices": 13,
          "material": 0
        },
        {
          "attributes": {
            "POSITION": 16,
            "NORMAL": 18,
            "TEXCOORD_0": 19
          },
          "indices": 17,
          "material": 0
        }
      ]
    },
    {
      "primitives": [
        {
          "attributes": {
            "POSITION": 20,
            "NORMAL": 22,
            "TEXCOORD_0": 23
          },
          "indices": 21,
          "material": 0
        },
        {
          "attributes": {
            "POSITION": 24,
            "NORMAL": 26,
            "TEXCOORD_0": 27
          },
          "indices": 25,
          "material": 0
        },
        {
          "attributes": {
            "POSITION": 28,
            "NORMAL": 30,
            "TEXCOORD_0": 31
          },
          "indices": 29,
          "material": 0
        },
        {
          "attributes": {
            "POSITION": 32,
            "NORMAL": 34,
            "TEXCOORD_0": 35
          },
          "indices": 33,
          "material": 0
        },
        {
          "attributes": {
            "POSITION": 36,
            "NORMAL": 38,
            "TEXCOORD_0": 39
          },
          "indices": 37,
          "material": 0
        }
      ]
    }
  ],
  "nodes": [
    {
      "mesh": 0
    },
    {
      "mesh": 1
    }
  ],
  "samplers": [
    {
      "magFilter": 9729,
      "minFilter": 9729
    }
  ],
  "scene": 0,
  "scenes": [
    {
      "nodes": [
        0,
        1
      ],
      "extensions": {}
    }
  ],
  "extensions": {}
}