{
  "extensionsUsed": [
    "KHR_materials_transmission",
    "KHR_materials_clearcoat",
    "KHR_materials_ior",
    "KHR_materials_specular",
    "KHR_materials_emissive_strength",
    "KHR_texture_transform"
  ],
  "accessors": [
    {
      "bufferView": 0,
      "componentType": 5126,
      "count": 178,
      "type": "VEC3",
      "max": [
        -8.996332,
        0.3502045,
        2.3114
      ],
      "min": [
        -9.45585,
        0.2285081,
        2.2606
      ]
    },
    {
      "bufferView": 1,
      "componentType": 5125,
      "count": 666,
      "type": "SCALAR",
      "max": [
        177.0
      ],
      "min": [
        0.0
      ]
    },
    {
      "bufferView": 2,
      "componentType": 5126,
      "count": 178,
      "type": "VEC3",
      "max": [
        0.15643445,
        0.98768836,
        1.0
      ],
      "min": [
        -0.15643445,
        -0.98768836,
        -1.0
      ]
    },
    {
      "bufferView": 3,
      "componentType": 5126,
      "count": 178,
      "type": "VEC2",
      "max": [
        0.99853516,
        0.33496284
      ],
      "min": [
        0.20721526,
        0.05848831
      ]
    },
    {
      "bufferView": 4,
      "componentType": 5126,
      "count": 162,
      "type": "VEC3",
      "max": [
        -8.997326,
        0.34393266,
        2.30505
      ],
      "min": [
        -9.454857,
        0.23477991,
        2.26695
      ]
    },
    {
      "bufferView": 5,
      "componentType": 5125,
      "count": 570,
      "type": "SCALAR",
      "max": [
        161.0
      ],
      "min": [
        0.0
      ]
    },
    {
      "bufferView": 6,
      "componentType": 5126,
      "count": 162,
      "type": "VEC3",
      "max": [
        0.15643445,
        0.98768836,
        1.0
      ],
      "min": [
        -0.15643445,
        -0.98768836,
        -1.0
      ]
    },
    {
      "bufferView": 7,
      "componentType": 5126,
      "count": 162,
      "type": "VEC2",
      "max": [
        0.20575042,
        0.7913199
      ],
      "min": [
        0.0,
        0.0
      ]
    },
    {
      "bufferView": 8,
      "componentType": 5126,
      "count": 130,
      "type": "VEC3",
      "max": [
        -8.996332,
        0.3502045,
        2.3114
      ],
      "min": [
        -9.004279,
        0.3000299,
        2.2606
      ]
    },
    {
      "bufferView": 9,
      "componentType": 5125,
      "count": 384,
      "type": "SCALAR",
      "max": [
        129.0
      ],
      "min": [
        0.0
      ]
    },
    {
      "bufferView": 10,
      "componentType": 5126,
      "count": 130,
      "type": "VEC3",
      "max": [
        0.98768836,
        0.15643445,
        2.9039528E-13
      ],
      "min": [
        0.98768836,
        0.15643445,
        -2.5684923E-13
      ]
    },
    {
      "bufferView": 11,
      "componentType": 5126,
      "count": 130,
      "type": "VEC2",
      "max": [
        0.48368979,
        0.040255055
      ],
      "min": [
        0.20721526,
        0.029244155
      ]
    },
    {
      "bufferView": 12,
      "componentType": 5126,
      "count": 130,
      "type": "VEC3",
      "max": [
        -9.447903,
        0.27868265,
        2.3114
      ],
      "min": [
        -9.45585,
        0.2285081,
        2.2606
      ]
    },
    {
      "bufferView": 13,
      "componentType": 5125,
      "count": 384,
      "type": "SCALAR",
      "max": [
        129.0
      ],
      "min": [
        0.0
      ]
    },
    {
      "bufferView": 14,
      "componentType": 5126,
      "count": 130,
      "type": "VEC3",
      "max": [
        -0.98768836,
        -0.15643445,
        3.5251424E-13
      ],
      "min": [
        -0.98768836,
        -0.15643445,
        -2.3767097E-13
      ]
    },
    {
      "bufferView": 15,
      "componentType": 5126,
      "count": 130,
      "type": "VEC2",
      "max": [
        0.48368979,
        0.011010899
      ],
      "min": [
        0.20721526,
        0.0
      ]
    },
    {
      "bufferView": 16,
      "componentType": 5126,
      "count": 178,
      "type": "VEC3",
      "max": [
        -8.996332,
        0.3502045,
        -2.2606
      ],
      "min": [
        -9.45585,
        0.2285081,
        -2.3114
      ]
    },
    {
      "bufferView": 17,
      "componentType": 5125,
      "count": 666,
      "type": "SCALAR",
      "max": [
        177.0
      ],
      "min": [
        0.0
      ]
    },
    {
      "bufferView": 18,
      "componentType": 5126,
      "count": 178,
      "type": "VEC3",
      "max": [
        0.15643445,
        0.98768836,
        1.0
      ],
      "min": [
        -0.15643445,
        -0.98768836,
        -1.0
      ]
    },
    {
      "bufferView": 19,
      "componentType": 5126,
      "count": 178,
      "type": "VEC2",
      "max": [
        0.99853516,
        0.33496284
      ],
      "min": [
        0.20721526,
        0.05848831
      ]
    },
    {
      "bufferView": 20,
      "componentType": 5126,
      "count": 162,
      "type": "VEC3",
      "max": [
        -8.997326,
        0.34393266,
        -2.26695
      ],
      "min": [
        -9.454857,
        0.23477991,
        -2.30505
      ]
    },
    {
      "bufferView": 21,
      "componentType": 5125,
      "count": 570,
      "type": "SCALAR",
      "max": [
        161.0
      ],
      "min": [
        0.0
      ]
    },
    {
      "bufferView": 22,
      "componentType": 5126,
      "count": 162,
      "type": "VEC3",
      "max": [
        0.15643445,
        0.98768836,
        1.0
      ],
      "min": [
        -0.15643445,
        -0.98768836,
        -1.0
      ]
    },
    {
      "bufferView": 23,
      "componentType": 5126,
      "count": 162,
      "type": "VEC2",
      "max": [
        0.20575042,
        0.7913199
      ],
      "min": [
        0.0,
        0.0
      ]
    },
    {
      "bufferView": 24,
      "componentType": 5126,
      "count": 130,
      "type": "VEC3",
      "max": [
        -8.996332,
        0.3502045,
        -2.2606
      ],
      "min": [
        -9.004279,
        0.3000299,
        -2.3114
      ]
    },
    {
      "bufferView": 25,
      "componentType": 5125,
      "count": 384,
      "type": "SCALAR",
      "max": [
        129.0
      ],
      "min": [
        0.0
      ]
    },
    {
      "bufferView": 26,
      "componentType": 5126,
      "count": 130,
      "type": "VEC3",
      "max": [
        0.98768836,
        0.15643445,
        2.9039528E-13
      ],
      "min": [
        0.98768836,
        0.15643445,
        -2.5684923E-13
      ]
    },
    {
      "bufferView": 27,
      "componentType": 5126,
      "count": 130,
      "type": "VEC2",
      "max": [
        0.48368979,
        0.040255055
      ],
      "min": [
        0.20721526,
        0.029244155
      ]
    },
    {
      "bufferView": 28,
      "componentType": 5126,
      "count": 130,
      "type": "VEC3",
      "max": [
        -9.447903,
        0.27868265,
        -2.2606
      ],
      "min": [
        -9.45585,
        0.2285081,
        -2.3114
      ]
    },
    {
      "bufferView": 29,
      "componentType": 5125,
      "count": 384,
      "type": "SCALAR",
      "max": [
        129.0
      ],
      "min": [
        0.0
      ]
    },
    {
      "bufferView": 30,
      "componentType": 5126,
      "count": 130,
      "type": "VEC3",
      "max": [
        -0.98768836,
        -0.15643445,
        3.5251424E-13
      ],
      "min": [
        -0.98768836,
        -0.15643445,
        -2.3767097E-13
      ]
    },
    {
      "bufferView": 31,
      "componentType": 5126,
      "count": 130,
      "type": "VEC2",
      "max": [
        0.48368979,
        0.011010899
      ],
      "min": [
        0.20721526,
        0.0
      ]
    }
  ],
  "asset": {
    "version": "2.0"
  },
  "buffers": [
    {
      "uri": "data:application/octet-stream;base64,",
      "byteLength": 2136
    },
    {
      "uri": "data:application/octet-stream;base64,",
      "byteLength": 2664
    },
    {
      "uri": "data:application/octet-stream;base64,",
      "byteLength": 2136
    },
    {
      "uri": "data:application/octet-stream;base64,",
      "byteLength": 1424
    },
    {
      "uri": "data:application/octet-stream;base64,",
      "byteLength": 1944
    },
    {
      "uri": "data:application/octet-stream;base64,",
      "byteLength": 2280
    },
    {
      "uri": "data:application/octet-stream;base64,",
      "byteLength": 1944
    },
    {
      "uri": "data:application/octet-stream;base64,",
      "byteLength": 1296
    },
    {
      "uri": "data:application/octet-stream;base64,",
      "byteLength": 1560
    },
    {
      "uri": "data:application/octet-stream;base64,",
      "byteLength": 1536
    },
    {
      "uri": "data:application/octet-stream;base64,",
      "byteLength": 1560
    },
    {
      "uri": "data:application/octet-stream;base64,",
      "byteLength": 1040
    },
    {
      "uri": "data:application/octet-stream;base64,",
      "byteLength": 1560
    },
    {
      "uri": "data:application/octet-stream;base64,",
      "byteLength": 1536
    },
    {
      "uri": "data:application/octet-stream;base64,",
      "byteLength": 1560
    },
    {
      "uri": "data:application/octet-stream;base64,",
      "byteLength": 1040
    },
    {
      "uri": "data:application/octet-stream;base64,",
      "byteLength": 2136
    },
    {
      "uri": "data:application/octet-stream;base64,",
      "byteLength": 2664
    },
    {
      "uri": "data:application/octet-stream;base64,",
      "byteLength": 2136
    },
    {
      "uri": "data:application/octet-stream;base64,",
      "byteLength": 1424
    },
    {
      "uri": "data:application/octet-stream;base64,",
      "byteLength": 1944
    },
    {
      "uri": "data:application/octet-stream;base64,",
      "byteLength": 2280
    },
    {
      "uri": "data:application/octet-stream;base64,",
      "byteLength": 1944
    },
    {
      "uri": "data:application/octet-stream;base64,",
      "byteLength": 1296
    },
    {
      "uri": "data:application/octet-stream;base64,",
      "byteLength": 1560
    },
    {
      "uri": "data:application/octet-stream;base64,",
      "byteLength": 1536
    },
    {
      "uri": "data:application/octet-stream;base64,",
      "byteLength": 1560
    },
    {
      "uri": "data:application/octet-stream;base64,",
      "byteLength": 1040
    },
    {
      "uri": "data:application/octet-stream;base64,",
      "byteLength": 1560
    },
    {
      "uri": "data:application/octet-stream;base64,",
      "byteLength": 1536
    },
    {
      "uri": "data:application/octet-stream;base64,",
      "byteLength": 1560
    },
    {
      "uri": "data:application/octet-stream;base64,",
      "byteLength": 1040
    }
  ],
  "bufferViews": [
    {
      "buffer": 0,
      "byteLength": 2136,
      "target": 34962
    },
    {
      "buffer": 1,
      "byteLength": 2664,
      "target": 34963
    },
    {
      "buffer": 2,
      "byteLength": 2136,
      "target": 34962
    },
    {
      "buffer": 3,
      "byteLength": 1424,
      "target": 34962
    },
    {
      "buffer": 4,
      "byteLength": 1944,
      "target": 34962
    },
    {
      "buffer": 5,
      "byteLength": 2280,
      "target": 34963
    },
    {
      "buffer": 6,
      "byteLength": 1944,
      "target": 34962
    },
    {
      "buffer": 7,
      "byteLength": 1296,
      "target": 34962
    },
    {
      "buffer": 8,
      "byteLength": 1560,
      "target": 34962
    },
    {
      "buffer": 9,
      "byteLength": 1536,
      "target": 34963
    },
    {
      "buffer": 10,
      "byteLength": 1560,
      "target": 34962
    },
    {
      "buffer": 11,
      "byteLength": 1040,
      "target": 34962
    },
    {
      "buffer": 12,
      "byteLength": 1560,
      "target": 34962
    },
    {
      "buffer": 13,
      "byteLength": 1536,
      "target": 34963
    },
    {
      "buffer": 14,
      "byteLength": 1560,
      "target": 34962
    },
    {
      "buffer": 15,
      "byteLength": 1040,
      "target": 34962
    },
    {
      "buffer": 16,
      "byteLength": 2136,
      "target": 34962
    },
    {
      "buffer": 17,
      "byteLength": 2664,
      "target": 34963
    },
    {
      "buffer": 18,
      "byteLength": 2136,
      "target": 34962
    },
    {
      "buffer": 19,
      "byteLength": 1424,
      "target": 34962
    },
    {
      "buffer": 20,
      "byteLength": 1944,
      "target": 34962
    },
    {
      "buffer": 21,
      "byteLength": 2280,
      "target": 34963
    },
    {
      "buffer": 22,
      "byteLength": 1944,
      "target": 34962
    },
    {
      "buffer": 23,
      "byteLength": 1296,
      "target": 34962
    },
    {
      "buffer": 24,
      "byteLength": 1560,
      "target": 34962
    },
    {
      "buffer": 25,
      "byteLength": 1536,
      "target": 34963
    },
    {
      "buffer": 26,
      "byteLength": 1560,
      "target": 34962
    },
    {
      "buffer": 27,
      "byteLength": 1040,
      "target": 34962
    },
    {
      "buffer": 28,
      "byteLength": 1560,
      "target": 34962
    },
    {
      "buffer": 29,
      "byteLength": 1536,
      "target": 34963
    },
    {
      "buffer": 30,
      "byteLength": 1560,
      "target": 34962
    },
    {
      "buffer": 31,
      "byteLength": 1040,
      "target": 34962
    }
  ],
  "materials": [
    {
      "pbrMetallicRoughness": {
        "baseColorFactor": [
          0.8039216,
          0.4392157,
          0.32941177,
          1.0
        ]
      }
    }
  ],
  "meshes": [
    {
      "primitives": [
        {
          "attributes": {
            "POSITION": 0,
            "NORMAL": 2,
            "TEXCOORD_0": 3
          },
          "indices": 1,
          "material": 0
        },
        {
          "attributes": {
            "POSITION": 4,
            "NORMAL": 6,
            "TEXCOORD_0": 7
          },
          "indices": 5,
          "material": 0
        },
        {
          "attributes": {
            "POSITION": 8,
            "NORMAL": 10,
            "TEXCOORD_0": 11
          },
          "indices": 9,
          "material": 0
        },
        {
          "attributes": {
            "POSITION": 12,
            "NORMAL": 14,
            "TEXCOORD_0": 15
          },
          "indices": 13,
          "material": 0
        }
      ]
    },
    {
      "primitives": [
        {
          "attributes": {
            "POSITION": 16,
            "NORMAL": 18,
            "TEXCOORD_0": 19
          },
          "indices": 17,
          "material": 0
        },
        {
          "attributes": {
            "POSITION": 20,
            "NORMAL": 22,
            "TEXCOORD_0": 23
          },
          "indices": 21,
          "material": 0
        },
        {
          "attributes": {
            "POSITION": 24,
            "NORMAL": 26,
            "TEXCOORD_0": 27
          },
          "indices": 25,
          "material": 0
        },
        {
          "attributes": {
            "POSITION": 28,
            "NORMAL": 30,
            "TEXCOORD_0": 31
          },
          "indices": 29,
          "material": 0
        }
      ]
    }
  ],
  "nodes": [
    {
      "mesh": 0
    },
    {
      "mesh": 1
    }
  ],
  "samplers": [
    {
      "magFilter": 9729,
      "minFilter": 9729
    }
  ],
  "scene": 0,
  "scenes": [
    {
      "nodes": [
        0,
        1
      ],
      "extensions": {}
    }
  ],
  "extensions": {}
}