{
  "extensionsUsed": [
    "KHR_materials_transmission",
    "KHR_materials_clearcoat",
    "KHR_materials_ior",
    "KHR_materials_specular",
    "KHR_materials_emissive_strength",
    "KHR_texture_transform"
  ],
  "accessors": [
    {
      "bufferView": 0,
      "componentType": 5126,
      "count": 203,
      "type": "VEC3",
      "max": [
        -10.431226,
        0.5167158,
        2.315477
      ],
      "min": [
        -10.768263,
        0.43804535,
        2.2559474
      ]
    },
    {
      "bufferView": 1,
      "componentType": 5125,
      "count": 627,
      "type": "SCALAR",
      "max": [
        202.0
      ],
      "min": [
        0.0
      ]
    },
    {
      "bufferView": 2,
      "componentType": 5126,
      "count": 203,
      "type": "VEC3",
      "max": [
        -0.21216986,
        -0.97019714,
        5.165295E-15
      ],
      "min": [
        -0.24231689,
        -0.9772328,
        -1.6437576E-15
      ]
    },
    {
      "bufferView": 3,
      "componentType": 5126,
      "count": 203,
      "type": "VEC2",
      "max": [
        0.61082554,
        0.6314013
      ],
      "min": [
        0.11421671,
        0.54573804
      ]
    },
    {
      "bufferView": 4,
      "componentType": 5126,
      "count": 248,
      "type": "VEC3",
      "max": [
        -10.430823,
        0.51657933,
        2.3157444
      ],
      "min": [
        -10.767715,
        0.43804535,
        2.2559474
      ]
    },
    {
      "bufferView": 5,
      "componentType": 5125,
      "count": 738,
      "type": "SCALAR",
      "max": [
        247.0
      ],
      "min": [
        0.0
      ]
    },
    {
      "bufferView": 6,
      "componentType": 5126,
      "count": 248,
      "type": "VEC3",
      "max": [
        0.9995334,
        0.038820036,
        0.99897677
      ],
      "min": [
        -0.2014251,
        -0.059216708,
        -0.9995173
      ]
    },
    {
      "bufferView": 7,
      "componentType": 5126,
      "count": 248,
      "type": "VEC2",
      "max": [
        0.112751864,
        0.99853516
      ],
      "min": [
        0.0,
        0.0
      ]
    },
    {
      "bufferView": 8,
      "componentType": 5126,
      "count": 135,
      "type": "VEC3",
      "max": [
        -10.49284,
        0.47273254,
        2.3113933
      ],
      "min": [
        -10.54364,
        0.4516074,
        2.2605932
      ]
    },
    {
      "bufferView": 9,
      "componentType": 5125,
      "count": 399,
      "type": "SCALAR",
      "max": [
        134.0
      ],
      "min": [
        0.0
      ]
    },
    {
      "bufferView": 10,
      "componentType": 5126,
      "count": 135,
      "type": "VEC3",
      "max": [
        1.0,
        0.0,
        1.0
      ],
      "min": [
        -1.0,
        0.0,
        -1.0
      ]
    },
    {
      "bufferView": 11,
      "componentType": 5126,
      "count": 135,
      "type": "VEC2",
      "max": [
        0.3459652,
        0.016114049
      ],
      "min": [
        0.11421671,
        0.0
      ]
    },
    {
      "bufferView": 12,
      "componentType": 5126,
      "count": 206,
      "type": "VEC3",
      "max": [
        -10.430823,
        0.5167158,
        2.3157444
      ],
      "min": [
        -10.768263,
        0.45066658,
        2.2560742
      ]
    },
    {
      "bufferView": 13,
      "componentType": 5125,
      "count": 636,
      "type": "SCALAR",
      "max": [
        205.0
      ],
      "min": [
        0.0
      ]
    },
    {
      "bufferView": 14,
      "componentType": 5126,
      "count": 206,
      "type": "VEC3",
      "max": [
        0.19218259,
        0.98137766,
        0.23085457
      ],
      "min": [
        0.18294075,
        0.9433188,
        -0.2769157
      ]
    },
    {
      "bufferView": 15,
      "componentType": 5126,
      "count": 206,
      "type": "VEC2",
      "max": [
        0.60902154,
        0.17225035
      ],
      "min": [
        0.11421671,
        0.08545084
      ]
    },
    {
      "bufferView": 16,
      "componentType": 5126,
      "count": 203,
      "type": "VEC3",
      "max": [
        -10.431226,
        0.5167158,
        -2.2559474
      ],
      "min": [
        -10.768263,
        0.43804535,
        -2.315477
      ]
    },
    {
      "bufferView": 17,
      "componentType": 5125,
      "count": 627,
      "type": "SCALAR",
      "max": [
        202.0
      ],
      "min": [
        0.0
      ]
    },
    {
      "bufferView": 18,
      "componentType": 5126,
      "count": 203,
      "type": "VEC3",
      "max": [
        -0.21216986,
        -0.97019714,
        1.6437576E-15
      ],
      "min": [
        -0.24231689,
        -0.9772328,
        -5.165295E-15
      ]
    },
    {
      "bufferView": 19,
      "componentType": 5126,
      "count": 203,
      "type": "VEC2",
      "max": [
        0.61082554,
        0.6314013
      ],
      "min": [
        0.11421671,
        0.54573804
      ]
    },
    {
      "bufferView": 20,
      "componentType": 5126,
      "count": 248,
      "type": "VEC3",
      "max": [
        -10.430823,
        0.51657933,
        -2.2559474
      ],
      "min": [
        -10.767715,
        0.43804535,
        -2.3157444
      ]
    },
    {
      "bufferView": 21,
      "componentType": 5125,
      "count": 738,
      "type": "SCALAR",
      "max": [
        247.0
      ],
      "min": [
        0.0
      ]
    },
    {
      "bufferView": 22,
      "componentType": 5126,
      "count": 248,
      "type": "VEC3",
      "max": [
        0.9995334,
        0.038820036,
        0.9995173
      ],
      "min": [
        -0.2014251,
        -0.059216708,
        -0.99897677
      ]
    },
    {
      "bufferView": 23,
      "componentType": 5126,
      "count": 248,
      "type": "VEC2",
      "max": [
        0.112751864,
        0.99853516
      ],
      "min": [
        0.0,
        0.0
      ]
    },
    {
      "bufferView": 24,
      "componentType": 5126,
      "count": 135,
      "type": "VEC3",
      "max": [
        -10.49284,
        0.47273254,
        -2.2605932
      ],
      "min": [
        -10.54364,
        0.4516074,
        -2.3113933
      ]
    },
    {
      "bufferView": 25,
      "componentType": 5125,
      "count": 399,
      "type": "SCALAR",
      "max": [
        134.0
      ],
      "min": [
        0.0
      ]
    },
    {
      "bufferView": 26,
      "componentType": 5126,
      "count": 135,
      "type": "VEC3",
      "max": [
        1.0,
        0.0,
        1.0
      ],
      "min": [
        -1.0,
        0.0,
        -1.0
      ]
    },
    {
      "bufferView": 27,
      "componentType": 5126,
      "count": 135,
      "type": "VEC2",
      "max": [
        0.3459652,
        0.016114049
      ],
      "min": [
        0.11421671,
        0.0
      ]
    },
    {
      "bufferView": 28,
      "componentType": 5126,
      "count": 206,
      "type": "VEC3",
      "max": [
        -10.430823,
        0.5167158,
        -2.2560742
      ],
      "min": [
        -10.768263,
        0.45066658,
        -2.3157444
      ]
    },
    {
      "bufferView": 29,
      "componentType": 5125,
      "count": 636,
      "type": "SCALAR",
      "max": [
        205.0
      ],
      "min": [
        0.0
      ]
    },
    {
      "bufferView": 30,
      "componentType": 5126,
      "count": 206,
      "type": "VEC3",
      "max": [
        0.19218259,
        0.98137766,
        0.2769157
      ],
      "min": [
        0.18294075,
        0.9433188,
        -0.23085457
      ]
    },
    {
      "bufferView": 31,
      "componentType": 5126,
      "count": 206,
      "type": "VEC2",
      "max": [
        0.60902154,
        0.17225035
      ],
      "min": [
        0.11421671,
        0.08545084
      ]
    }
  ],
  "asset": {
    "version": "2.0"
  },
  "buffers": [
    {
      "uri": "data:application/octet-stream;base64,",
      "byteLength": 2436
    },
    {
      "uri": "data:application/octet-stream;base64,",
      "byteLength": 2508
    },
    {
      "uri": "data:application/octet-stream;base64,",
      "byteLength": 2436
    },
    {
      "uri": "data:application/octet-stream;base64,",
      "byteLength": 1624
    },
    {
      "uri": "data:application/octet-stream;base64,",
      "byteLength": 2976
    },
    {
      "uri": "data:application/octet-stream;base64,",
      "byteLength": 2952
    },
    {
      "uri": "data:application/octet-stream;base64,",
      "byteLength": 2976
    },
    {
      "uri": "data:application/octet-stream;base64,",
      "byteLength": 1984
    },
    {
      "uri": "data:application/octet-stream;base64,",
      "byteLength": 1620
    },
    {
      "uri": "data:application/octet-stream;base64,",
      "byteLength": 1596
    },
    {
      "uri": "data:application/octet-stream;base64,",
      "byteLength": 1620
    },
    {
      "uri": "data:application/octet-stream;base64,",
      "byteLength": 1080
    },
    {
      "uri": "data:application/octet-stream;base64,",
      "byteLength": 2472
    },
    {
      "uri": "data:application/octet-stream;base64,",
      "byteLength": 2544
    },
    {
      "uri": "data:application/octet-stream;base64,",
      "byteLength": 2472
    },
    {
      "uri": "data:application/octet-stream;base64,",
      "byteLength": 1648
    },
    {
      "uri": "data:application/octet-stream;base64,",
      "byteLength": 2436
    },
    {
      "uri": "data:application/octet-stream;base64,",
      "byteLength": 2508
    },
    {
      "uri": "data:application/octet-stream;base64,",
      "byteLength": 2436
    },
    {
      "uri": "data:application/octet-stream;base64,",
      "byteLength": 1624
    },
    {
      "uri": "data:application/octet-stream;base64,",
      "byteLength": 2976
    },
    {
      "uri": "data:application/octet-stream;base64,",
      "byteLength": 2952
    },
    {
      "uri": "data:application/octet-stream;base64,",
      "byteLength": 2976
    },
    {
      "uri": "data:application/octet-stream;base64,",
      "byteLength": 1984
    },
    {
      "uri": "data:application/octet-stream;base64,",
      "byteLength": 1620
    },
    {
      "uri": "data:application/octet-stream;base64,",
      "byteLength": 1596
    },
    {
      "uri": "data:application/octet-stream;base64,",
      "byteLength": 1620
    },
    {
      "uri": "data:application/octet-stream;base64,",
      "byteLength": 1080
    },
    {
      "uri": "data:application/octet-stream;base64,",
      "byteLength": 2472
    },
    {
      "uri": "data:application/octet-stream;base64,",
      "byteLength": 2544
    },
    {
      "uri": "data:application/octet-stream;base64,",
      "byteLength": 2472
    },
    {
      "uri": "data:application/octet-stream;base64,",
      "byteLength": 1648
    }
  ],
  "bufferViews": [
    {
      "buffer": 0,
      "byteLength": 2436,
      "target": 34962
    },
    {
      "buffer": 1,
      "byteLength": 2508,
      "target": 34963
    },
    {
      "buffer": 2,
      "byteLength": 2436,
      "target": 34962
    },
    {
      "buffer": 3,
      "byteLength": 1624,
      "target": 34962
    },
    {
      "buffer": 4,
      "byteLength": 2976,
      "target": 34962
    },
    {
      "buffer": 5,
      "byteLength": 2952,
      "target": 34963
    },
    {
      "buffer": 6,
      "byteLength": 2976,
      "target": 34962
    },
    {
      "buffer": 7,
      "byteLength": 1984,
      "target": 34962
    },
    {
      "buffer": 8,
      "byteLength": 1620,
      "target": 34962
    },
    {
      "buffer": 9,
      "byteLength": 1596,
      "target": 34963
    },
    {
      "buffer": 10,
      "byteLength": 1620,
      "target": 34962
    },
    {
      "buffer": 11,
      "byteLength": 1080,
      "target": 34962
    },
    {
      "buffer": 12,
      "byteLength": 2472,
      "target": 34962
    },
    {
      "buffer": 13,
      "byteLength": 2544,
      "target": 34963
    },
    {
      "buffer": 14,
      "byteLength": 2472,
      "target": 34962
    },
    {
      "buffer": 15,
      "byteLength": 1648,
      "target": 34962
    },
    {
      "buffer": 16,
      "byteLength": 2436,
      "target": 34962
    },
    {
      "buffer": 17,
      "byteLength": 2508,
      "target": 34963
    },
    {
      "buffer": 18,
      "byteLength": 2436,
      "target": 34962
    },
    {
      "buffer": 19,
      "byteLength": 1624,
      "target": 34962
    },
    {
      "buffer": 20,
      "byteLength": 2976,
      "target": 34962
    },
    {
      "buffer": 21,
      "byteLength": 2952,
      "target": 34963
    },
    {
      "buffer": 22,
      "byteLength": 2976,
      "target": 34962
    },
    {
      "buffer": 23,
      "byteLength": 1984,
      "target": 34962
    },
    {
      "buffer": 24,
      "byteLength": 1620,
      "target": 34962
    },
    {
      "buffer": 25,
      "byteLength": 1596,
      "target": 34963
    },
    {
      "buffer": 26,
      "byteLength": 1620,
      "target": 34962
    },
    {
      "buffer": 27,
      "byteLength": 1080,
      "target": 34962
    },
    {
      "buffer": 28,
      "byteLength": 2472,
      "target": 34962
    },
    {
      "buffer": 29,
      "byteLength": 2544,
      "target": 34963
    },
    {
      "buffer": 30,
      "byteLength": 2472,
      "target": 34962
    },
    {
      "buffer": 31,
      "byteLength": 1648,
      "target": 34962
    }
  ],
  "materials": [
    {
      "pbrMetallicRoughness": {
        "baseColorFactor": [
          1.0,
          0.54901963,
          0.4117647,
          1.0
        ]
      }
    }
  ],
  "meshes": [
    {
      "primitives": [
        {
          "attributes": {
            "POSITION": 0,
            "NORMAL": 2,
            "TEXCOORD_0": 3
          },
          "indices": 1,
          "material": 0
        },
        {
          "attributes": {
            "POSITION": 4,
            "NORMAL": 6,
            "TEXCOORD_0": 7
          },
          "indices": 5,
          "material": 0
        },
        {
          "attributes": {
            "POSITION": 8,
            "NORMAL": 10,
            "TEXCOORD_0": 11
          },
          "indices": 9,
          "material": 0
        },
        {
          "attributes": {
            "POSITION": 12,
            "NORMAL": 14,
            "TEXCOORD_0": 15
          },
          "indices": 13,
          "material": 0
        }
      ]
    },
    {
      "primitives": [
        {
          "attributes": {
            "POSITION": 16,
            "NORMAL": 18,
            "TEXCOORD_0": 19
          },
          "indices": 17,
          "material": 0
        },
        {
          "attributes": {
            "POSITION": 20,
            "NORMAL": 22,
            "TEXCOORD_0": 23
          },
          "indices": 21,
          "material": 0
        },
        {
          "attributes": {
            "POSITION": 24,
            "NORMAL": 26,
            "TEXCOORD_0": 27
          },
          "indices": 25,
          "material": 0
        },
        {
          "attributes": {
            "POSITION": 28,
            "NORMAL": 30,
            "TEXCOORD_0": 31
          },
          "indices": 29,
          "material": 0
        }
      ]
    }
  ],
  "nodes": [
    {
      "mesh": 0
    },
    {
      "mesh": 1
    }
  ],
  "samplers": [
    {
      "magFilter": 9729,
      "minFilter": 9729
    }
  ],
  "scene": 0,
  "scenes": [
    {
      "nodes": [
        0,
        1
      ],
      "extensions": {}
    }
  ],
  "extensions": {}
}