{
  "extensionsUsed": [
    "KHR_materials_transmission",
    "KHR_materials_clearcoat",
    "KHR_materials_ior",
    "KHR_materials_specular",
    "KHR_materials_emissive_strength",
    "KHR_texture_transform"
  ],
  "accessors": [
    {
      "bufferView": 0,
      "componentType": 5126,
      "count": 130,
      "type": "VEC3",
      "max": [
        -10.493095,
        1.2578149,
        2.3114
      ],
      "min": [
        -10.543895,
        0.48592833,
        2.2606
      ]
    },
    {
      "bufferView": 1,
      "componentType": 5125,
      "count": 384,
      "type": "SCALAR",
      "max": [
        129.0
      ],
      "min": [
        0.0
      ]
    },
    {
      "bufferView": 2,
      "componentType": 5126,
      "count": 130,
      "type": "VEC3",
      "max": [
        1.0,
        0.0,
        1.0
      ],
      "min": [
        -1.0,
        -0.0,
        -1.0
      ]
    },
    {
      "bufferView": 3,
      "componentType": 5126,
      "count": 130,
      "type": "VEC2",
      "max": [
        0.16963845,
        0.82743186
      ],
      "min": [
        0.0,
        0.0
      ]
    },
    {
      "bufferView": 4,
      "componentType": 5126,
      "count": 130,
      "type": "VEC3",
      "max": [
        -10.486745,
        1.2578149,
        2.31775
      ],
      "min": [
        -10.550245,
        0.48592833,
        2.25425
      ]
    },
    {
      "bufferView": 5,
      "componentType": 5125,
      "count": 384,
      "type": "SCALAR",
      "max": [
        129.0
      ],
      "min": [
        0.0
      ]
    },
    {
      "bufferView": 6,
      "componentType": 5126,
      "count": 130,
      "type": "VEC3",
      "max": [
        1.0,
        0.0,
        1.0
      ],
      "min": [
        -1.0,
        0.0,
        -1.0
      ]
    },
    {
      "bufferView": 7,
      "componentType": 5126,
      "count": 130,
      "type": "VEC2",
      "max": [
        0.99853516,
        0.26356545
      ],
      "min": [
        0.1711033,
        0.04968634
      ]
    },
    {
      "bufferView": 8,
      "componentType": 5126,
      "count": 130,
      "type": "VEC3",
      "max": [
        -10.486745,
        0.48592833,
        2.31775
      ],
      "min": [
        -10.550245,
        0.48592833,
        2.25425
      ]
    },
    {
      "bufferView": 9,
      "componentType": 5125,
      "count": 384,
      "type": "SCALAR",
      "max": [
        129.0
      ],
      "min": [
        0.0
      ]
    },
    {
      "bufferView": 10,
      "componentType": 5126,
      "count": 130,
      "type": "VEC3",
      "max": [
        8.513165E-15,
        -1.0,
        7.825101E-15
      ],
      "min": [
        -1.9730364E-15,
        -1.0,
        -8.513165E-15
      ]
    },
    {
      "bufferView": 11,
      "componentType": 5126,
      "count": 130,
      "type": "VEC2",
      "max": [
        0.3849824,
        0.0068189995
      ],
      "min": [
        0.1711033,
        0.0
      ]
    },
    {
      "bufferView": 12,
      "componentType": 5126,
      "count": 130,
      "type": "VEC3",
      "max": [
        -10.486745,
        1.2578149,
        2.31775
      ],
      "min": [
        -10.550245,
        1.2578149,
        2.25425
      ]
    },
    {
      "bufferView": 13,
      "componentType": 5125,
      "count": 384,
      "type": "SCALAR",
      "max": [
        129.0
      ],
      "min": [
        0.0
      ]
    },
    {
      "bufferView": 14,
      "componentType": 5126,
      "count": 130,
      "type": "VEC3",
      "max": [
        2.3214181E-14,
        1.0,
        1.4969639E-14
      ],
      "min": [
        -2.2389295E-14,
        1.0,
        -2.2244042E-14
      ]
    },
    {
      "bufferView": 15,
      "componentType": 5126,
      "count": 130,
      "type": "VEC2",
      "max": [
        0.3849824,
        0.03166217
      ],
      "min": [
        0.1711033,
        0.02484317
      ]
    },
    {
      "bufferView": 16,
      "componentType": 5126,
      "count": 130,
      "type": "VEC3",
      "max": [
        -10.493095,
        1.2578149,
        -2.2606
      ],
      "min": [
        -10.543895,
        0.48592833,
        -2.3114
      ]
    },
    {
      "bufferView": 17,
      "componentType": 5125,
      "count": 384,
      "type": "SCALAR",
      "max": [
        129.0
      ],
      "min": [
        0.0
      ]
    },
    {
      "bufferView": 18,
      "componentType": 5126,
      "count": 130,
      "type": "VEC3",
      "max": [
        1.0,
        0.0,
        1.0
      ],
      "min": [
        -1.0,
        0.0,
        -1.0
      ]
    },
    {
      "bufferView": 19,
      "componentType": 5126,
      "count": 130,
      "type": "VEC2",
      "max": [
        0.16963845,
        0.82743186
      ],
      "min": [
        0.0,
        0.0
      ]
    },
    {
      "bufferView": 20,
      "componentType": 5126,
      "count": 130,
      "type": "VEC3",
      "max": [
        -10.486745,
        1.2578149,
        -2.25425
      ],
      "min": [
        -10.550245,
        0.48592833,
        -2.31775
      ]
    },
    {
      "bufferView": 21,
      "componentType": 5125,
      "count": 384,
      "type": "SCALAR",
      "max": [
        129.0
      ],
      "min": [
        0.0
      ]
    },
    {
      "bufferView": 22,
      "componentType": 5126,
      "count": 130,
      "type": "VEC3",
      "max": [
        1.0,
        0.0,
        1.0
      ],
      "min": [
        -1.0,
        0.0,
        -1.0
      ]
    },
    {
      "bufferView": 23,
      "componentType": 5126,
      "count": 130,
      "type": "VEC2",
      "max": [
        0.99853516,
        0.26356545
      ],
      "min": [
        0.1711033,
        0.04968634
      ]
    },
    {
      "bufferView": 24,
      "componentType": 5126,
      "count": 130,
      "type": "VEC3",
      "max": [
        -10.486745,
        0.48592833,
        -2.25425
      ],
      "min": [
        -10.550245,
        0.48592833,
        -2.31775
      ]
    },
    {
      "bufferView": 25,
      "componentType": 5125,
      "count": 384,
      "type": "SCALAR",
      "max": [
        129.0
      ],
      "min": [
        0.0
      ]
    },
    {
      "bufferView": 26,
      "componentType": 5126,
      "count": 130,
      "type": "VEC3",
      "max": [
        8.513165E-15,
        -1.0,
        8.513165E-15
      ],
      "min": [
        -1.9730364E-15,
        -1.0,
        -7.825101E-15
      ]
    },
    {
      "bufferView": 27,
      "componentType": 5126,
      "count": 130,
      "type": "VEC2",
      "max": [
        0.3849824,
        0.0068189995
      ],
      "min": [
        0.1711033,
        0.0
      ]
    },
    {
      "bufferView": 28,
      "componentType": 5126,
      "count": 130,
      "type": "VEC3",
      "max": [
        -10.486745,
        1.2578149,
        -2.25425
      ],
      "min": [
        -10.550245,
        1.2578149,
        -2.31775
      ]
    },
    {
      "bufferView": 29,
      "componentType": 5125,
      "count": 384,
      "type": "SCALAR",
      "max": [
        129.0
      ],
      "min": [
        0.0
      ]
    },
    {
      "bufferView": 30,
      "componentType": 5126,
      "count": 130,
      "type": "VEC3",
      "max": [
        2.3214181E-14,
        1.0,
        2.2244042E-14
      ],
      "min": [
        -2.2389295E-14,
        1.0,
        -1.4969639E-14
      ]
    },
    {
      "bufferView": 31,
      "componentType": 5126,
      "count": 130,
      "type": "VEC2",
      "max": [
        0.3849824,
        0.03166217
      ],
      "min": [
        0.1711033,
        0.02484317
      ]
    }
  ],
  "asset": {
    "version": "2.0"
  },
  "buffers": [
    {
      "uri": "data:application/octet-stream;base64,",
      "byteLength": 1560
    },
    {
      "uri": "data:application/octet-stream;base64,",
      "byteLength": 1536
    },
    {
      "uri": "data:application/octet-stream;base64,",
      "byteLength": 1560
    },
    {
      "uri": "data:application/octet-stream;base64,",
      "byteLength": 1040
    },
    {
      "uri": "data:application/octet-stream;base64,",
      "byteLength": 1560
    },
    {
      "uri": "data:application/octet-stream;base64,",
      "byteLength": 1536
    },
    {
      "uri": "data:application/octet-stream;base64,",
      "byteLength": 1560
    },
    {
      "uri": "data:application/octet-stream;base64,",
      "byteLength": 1040
    },
    {
      "uri": "data:application/octet-stream;base64,",
      "byteLength": 1560
    },
    {
      "uri": "data:application/octet-stream;base64,",
      "byteLength": 1536
    },
    {
      "uri": "data:application/octet-stream;base64,",
      "byteLength": 1560
    },
    {
      "uri": "data:application/octet-stream;base64,",
      "byteLength": 1040
    },
    {
      "uri": "data:application/octet-stream;base64,",
      "byteLength": 1560
    },
    {
      "uri": "data:application/octet-stream;base64,",
      "byteLength": 1536
    },
    {
      "uri": "data:application/octet-stream;base64,",
      "byteLength": 1560
    },
    {
      "uri": "data:application/octet-stream;base64,",
      "byteLength": 1040
    },
    {
      "uri": "data:application/octet-stream;base64,",
      "byteLength": 1560
    },
    {
      "uri": "data:application/octet-stream;base64,",
      "byteLength": 1536
    },
    {
      "uri": "data:application/octet-stream;base64,",
      "byteLength": 1560
    },
    {
      "uri": "data:application/octet-stream;base64,",
      "byteLength": 1040
    },
    {
      "uri": "data:application/octet-stream;base64,",
      "byteLength": 1560
    },
    {
      "uri": "data:application/octet-stream;base64,",
      "byteLength": 1536
    },
    {
      "uri": "data:application/octet-stream;base64,",
      "byteLength": 1560
    },
    {
      "uri": "data:application/octet-stream;base64,",
      "byteLength": 1040
    },
    {
      "uri": "data:application/octet-stream;base64,",
      "byteLength": 1560
    },
    {
      "uri": "data:application/octet-stream;base64,",
      "byteLength": 1536
    },
    {
      "uri": "data:application/octet-stream;base64,",
      "byteLength": 1560
    },
    {
      "uri": "data:application/octet-stream;base64,",
      "byteLength": 1040
    },
    {
      "uri": "data:application/octet-stream;base64,",
      "byteLength": 1560
    },
    {
      "uri": "data:application/octet-stream;base64,",
      "byteLength": 1536
    },
    {
      "uri": "data:application/octet-stream;base64,",
      "byteLength": 1560
    },
    {
      "uri": "data:application/octet-stream;base64,",
      "byteLength": 1040
    }
  ],
  "bufferViews": [
    {
      "buffer": 0,
      "byteLength": 1560,
      "target": 34962
    },
    {
      "buffer": 1,
      "byteLength": 1536,
      "target": 34963
    },
    {
      "buffer": 2,
      "byteLength": 1560,
      "target": 34962
    },
    {
      "buffer": 3,
      "byteLength": 1040,
      "target": 34962
    },
    {
      "buffer": 4,
      "byteLength": 1560,
      "target": 34962
    },
    {
      "buffer": 5,
      "byteLength": 1536,
      "target": 34963
    },
    {
      "buffer": 6,
      "byteLength": 1560,
      "target": 34962
    },
    {
      "buffer": 7,
      "byteLength": 1040,
      "target": 34962
    },
    {
      "buffer": 8,
      "byteLength": 1560,
      "target": 34962
    },
    {
      "buffer": 9,
      "byteLength": 1536,
      "target": 34963
    },
    {
      "buffer": 10,
      "byteLength": 1560,
      "target": 34962
    },
    {
      "buffer": 11,
      "byteLength": 1040,
      "target": 34962
    },
    {
      "buffer": 12,
      "byteLength": 1560,
      "target": 34962
    },
    {
      "buffer": 13,
      "byteLength": 1536,
      "target": 34963
    },
    {
      "buffer": 14,
      "byteLength": 1560,
      "target": 34962
    },
    {
      "buffer": 15,
      "byteLength": 1040,
      "target": 34962
    },
    {
      "buffer": 16,
      "byteLength": 1560,
      "target": 34962
    },
    {
      "buffer": 17,
      "byteLength": 1536,
      "target": 34963
    },
    {
      "buffer": 18,
      "byteLength": 1560,
      "target": 34962
    },
    {
      "buffer": 19,
      "byteLength": 1040,
      "target": 34962
    },
    {
      "buffer": 20,
      "byteLength": 1560,
      "target": 34962
    },
    {
      "buffer": 21,
      "byteLength": 1536,
      "target": 34963
    },
    {
      "buffer": 22,
      "byteLength": 1560,
      "target": 34962
    },
    {
      "buffer": 23,
      "byteLength": 1040,
      "target": 34962
    },
    {
      "buffer": 24,
      "byteLength": 1560,
      "target": 34962
    },
    {
      "buffer": 25,
      "byteLength": 1536,
      "target": 34963
    },
    {
      "buffer": 26,
      "byteLength": 1560,
      "target": 34962
    },
    {
      "buffer": 27,
      "byteLength": 1040,
      "target": 34962
    },
    {
      "buffer": 28,
      "byteLength": 1560,
      "target": 34962
    },
    {
      "buffer": 29,
      "byteLength": 1536,
      "target": 34963
    },
    {
      "buffer": 30,
      "byteLength": 1560,
      "target": 34962
    },
    {
      "buffer": 31,
      "byteLength": 1040,
      "target": 34962
    }
  ],
  "materials": [
    {
      "pbrMetallicRoughness": {
        "baseColorFactor": [
          0.0,
          0.0,
          1.0,
          1.0
        ]
      }
    }
  ],
  "meshes": [
    {
      "primitives": [
        {
          "attributes": {
            "POSITION": 0,
            "NORMAL": 2,
            "TEXCOORD_0": 3
          },
          "indices": 1,
          "material": 0
        },
        {
          "attributes": {
            "POSITION": 4,
            "NORMAL": 6,
            "TEXCOORD_0": 7
          },
          "indices": 5,
          "material": 0
        },
        {
          "attributes": {
            "POSITION": 8,
            "NORMAL": 10,
            "TEXCOORD_0": 11
          },
          "indices": 9,
          "material": 0
        },
        {
          "attributes": {
            "POSITION": 12,
            "NORMAL": 14,
            "TEXCOORD_0": 15
          },
          "indices": 13,
          "material": 0
        }
      ]
    },
    {
      "primitives": [
        {
          "attributes": {
            "POSITION": 16,
            "NORMAL": 18,
            "TEXCOORD_0": 19
          },
          "indices": 17,
          "material": 0
        },
        {
          "attributes": {
            "POSITION": 20,
            "NORMAL": 22,
            "TEXCOORD_0": 23
          },
          "indices": 21,
          "material": 0
        },
        {
          "attributes": {
            "POSITION": 24,
            "NORMAL": 26,
            "TEXCOORD_0": 27
          },
          "indices": 25,
          "material": 0
        },
        {
          "attributes": {
            "POSITION": 28,
            "NORMAL": 30,
            "TEXCOORD_0": 31
          },
          "indices": 29,
          "material": 0
        }
      ]
    }
  ],
  "nodes": [
    {
      "mesh": 0
    },
    {
      "mesh": 1
    }
  ],
  "samplers": [
    {
      "magFilter": 9729,
      "minFilter": 9729
    }
  ],
  "scene": 0,
  "scenes": [
    {
      "nodes": [
        0,
        1
      ],
      "extensions": {}
    }
  ],
  "extensions": {}
}