{
  "extensionsUsed": [
    "KHR_materials_transmission",
    "KHR_materials_clearcoat",
    "KHR_materials_ior",
    "KHR_materials_specular",
    "KHR_materials_emissive_strength",
    "KHR_texture_transform"
  ],
  "accessors": [
    {
      "bufferView": 0,
      "componentType": 5126,
      "count": 232,
      "type": "VEC3",
      "max": [
        -10.47468,
        0.48592833,
        2.329815
      ],
      "min": [
        -10.56231,
        0.48592833,
        2.242185
      ]
    },
    {
      "bufferView": 1,
      "componentType": 5125,
      "count": 696,
      "type": "SCALAR",
      "max": [
        231.0
      ],
      "min": [
        0.0
      ]
    },
    {
      "bufferView": 2,
      "componentType": 5126,
      "count": 232,
      "type": "VEC3",
      "max": [
        0.0,
        1.0,
        0.0
      ],
      "min": [
        0.0,
        1.0,
        0.0
      ]
    },
    {
      "bufferView": 3,
      "componentType": 5126,
      "count": 232,
      "type": "VEC2",
      "max": [
        0.31687722,
        0.50289065
      ],
      "min": [
        0.0,
        0.18454856
      ]
    },
    {
      "bufferView": 4,
      "componentType": 5126,
      "count": 258,
      "type": "VEC3",
      "max": [
        -10.47468,
        0.48592833,
        2.329815
      ],
      "min": [
        -10.56231,
        0.46242595,
        2.242185
      ]
    },
    {
      "bufferView": 5,
      "componentType": 5125,
      "count": 768,
      "type": "SCALAR",
      "max": [
        257.0
      ],
      "min": [
        0.0
      ]
    },
    {
      "bufferView": 6,
      "componentType": 5126,
      "count": 258,
      "type": "VEC3",
      "max": [
        1.0,
        0.0,
        1.0
      ],
      "min": [
        -1.0,
        0.0,
        -1.0
      ]
    },
    {
      "bufferView": 7,
      "componentType": 5126,
      "count": 258,
      "type": "VEC2",
      "max": [
        0.72059876,
        0.99853516
      ],
      "min": [
        0.6366841,
        0.0
      ]
    },
    {
      "bufferView": 8,
      "componentType": 5126,
      "count": 234,
      "type": "VEC3",
      "max": [
        -10.491508,
        0.48592833,
        2.3129876
      ],
      "min": [
        -10.545483,
        0.46571967,
        2.2590125
      ]
    },
    {
      "bufferView": 9,
      "componentType": 5125,
      "count": 696,
      "type": "SCALAR",
      "max": [
        233.0
      ],
      "min": [
        0.0
      ]
    },
    {
      "bufferView": 10,
      "componentType": 5126,
      "count": 234,
      "type": "VEC3",
      "max": [
        1.0,
        0.0,
        1.0
      ],
      "min": [
        -1.0,
        0.0,
        -1.0
      ]
    },
    {
      "bufferView": 11,
      "componentType": 5126,
      "count": 234,
      "type": "VEC2",
      "max": [
        0.61588293,
        0.07341395
      ],
      "min": [
        0.0,
        0.0
      ]
    },
    {
      "bufferView": 12,
      "componentType": 5126,
      "count": 256,
      "type": "VEC3",
      "max": [
        -10.47468,
        0.47957835,
        2.329815
      ],
      "min": [
        -10.56231,
        0.46242595,
        2.242185
      ]
    },
    {
      "bufferView": 13,
      "componentType": 5125,
      "count": 768,
      "type": "SCALAR",
      "max": [
        255.0
      ],
      "min": [
        0.0
      ]
    },
    {
      "bufferView": 14,
      "componentType": 5126,
      "count": 256,
      "type": "VEC3",
      "max": [
        -0.19209158,
        -0.981377,
        0.0
      ],
      "min": [
        -0.19209158,
        -0.981377,
        0.0
      ]
    },
    {
      "bufferView": 15,
      "componentType": 5126,
      "count": 256,
      "type": "VEC2",
      "max": [
        0.6352193,
        0.5089375
      ],
      "min": [
        0.31834206,
        0.18454856
      ]
    },
    {
      "bufferView": 16,
      "componentType": 5126,
      "count": 232,
      "type": "VEC3",
      "max": [
        -10.47468,
        0.48592833,
        -2.242185
      ],
      "min": [
        -10.56231,
        0.48592833,
        -2.329815
      ]
    },
    {
      "bufferView": 17,
      "componentType": 5125,
      "count": 696,
      "type": "SCALAR",
      "max": [
        231.0
      ],
      "min": [
        0.0
      ]
    },
    {
      "bufferView": 18,
      "componentType": 5126,
      "count": 232,
      "type": "VEC3",
      "max": [
        0.0,
        1.0,
        0.0
      ],
      "min": [
        0.0,
        1.0,
        0.0
      ]
    },
    {
      "bufferView": 19,
      "componentType": 5126,
      "count": 232,
      "type": "VEC2",
      "max": [
        0.31687722,
        0.50289065
      ],
      "min": [
        0.0,
        0.18454856
      ]
    },
    {
      "bufferView": 20,
      "componentType": 5126,
      "count": 258,
      "type": "VEC3",
      "max": [
        -10.47468,
        0.48592833,
        -2.242185
      ],
      "min": [
        -10.56231,
        0.46242595,
        -2.329815
      ]
    },
    {
      "bufferView": 21,
      "componentType": 5125,
      "count": 768,
      "type": "SCALAR",
      "max": [
        257.0
      ],
      "min": [
        0.0
      ]
    },
    {
      "bufferView": 22,
      "componentType": 5126,
      "count": 258,
      "type": "VEC3",
      "max": [
        1.0,
        0.0,
        1.0
      ],
      "min": [
        -1.0,
        0.0,
        -1.0
      ]
    },
    {
      "bufferView": 23,
      "componentType": 5126,
      "count": 258,
      "type": "VEC2",
      "max": [
        0.72059876,
        0.99853516
      ],
      "min": [
        0.6366841,
        0.0
      ]
    },
    {
      "bufferView": 24,
      "componentType": 5126,
      "count": 234,
      "type": "VEC3",
      "max": [
        -10.491508,
        0.48592833,
        -2.2590125
      ],
      "min": [
        -10.545483,
        0.46571967,
        -2.3129876
      ]
    },
    {
      "bufferView": 25,
      "componentType": 5125,
      "count": 696,
      "type": "SCALAR",
      "max": [
        233.0
      ],
      "min": [
        0.0
      ]
    },
    {
      "bufferView": 26,
      "componentType": 5126,
      "count": 234,
      "type": "VEC3",
      "max": [
        1.0,
        0.0,
        1.0
      ],
      "min": [
        -1.0,
        0.0,
        -1.0
      ]
    },
    {
      "bufferView": 27,
      "componentType": 5126,
      "count": 234,
      "type": "VEC2",
      "max": [
        0.61588293,
        0.07341395
      ],
      "min": [
        0.0,
        0.0
      ]
    },
    {
      "bufferView": 28,
      "componentType": 5126,
      "count": 256,
      "type": "VEC3",
      "max": [
        -10.47468,
        0.47957835,
        -2.242185
      ],
      "min": [
        -10.56231,
        0.46242595,
        -2.329815
      ]
    },
    {
      "bufferView": 29,
      "componentType": 5125,
      "count": 768,
      "type": "SCALAR",
      "max": [
        255.0
      ],
      "min": [
        0.0
      ]
    },
    {
      "bufferView": 30,
      "componentType": 5126,
      "count": 256,
      "type": "VEC3",
      "max": [
        -0.19209158,
        -0.981377,
        -0.0
      ],
      "min": [
        -0.19209158,
        -0.981377,
        -0.0
      ]
    },
    {
      "bufferView": 31,
      "componentType": 5126,
      "count": 256,
      "type": "VEC2",
      "max": [
        0.6352193,
        0.5089375
      ],
      "min": [
        0.31834206,
        0.18454856
      ]
    }
  ],
  "asset": {
    "version": "2.0"
  },
  "buffers": [
    {
      "uri": "data:application/octet-stream;base64,",
      "byteLength": 2784
    },
    {
      "uri": "data:application/octet-stream;base64,",
      "byteLength": 2784
    },
    {
      "uri": "data:application/octet-stream;base64,",
      "byteLength": 2784
    },
    {
      "uri": "data:application/octet-stream;base64,",
      "byteLength": 1856
    },
    {
      "uri": "data:application/octet-stream;base64,",
      "byteLength": 3096
    },
    {
      "uri": "data:application/octet-stream;base64,",
      "byteLength": 3072
    },
    {
      "uri": "data:application/octet-stream;base64,",
      "byteLength": 3096
    },
    {
      "uri": "data:application/octet-stream;base64,",
      "byteLength": 2064
    },
    {
      "uri": "data:application/octet-stream;base64,",
      "byteLength": 2808
    },
    {
      "uri": "data:application/octet-stream;base64,",
      "byteLength": 2784
    },
    {
      "uri": "data:application/octet-stream;base64,",
      "byteLength": 2808
    },
    {
      "uri": "data:application/octet-stream;base64,",
      "byteLength": 1872
    },
    {
      "uri": "data:application/octet-stream;base64,",
      "byteLength": 3072
    },
    {
      "uri": "data:application/octet-stream;base64,",
      "byteLength": 3072
    },
    {
      "uri": "data:application/octet-stream;base64,",
      "byteLength": 3072
    },
    {
      "uri": "data:application/octet-stream;base64,",
      "byteLength": 2048
    },
    {
      "uri": "data:application/octet-stream;base64,",
      "byteLength": 2784
    },
    {
      "uri": "data:application/octet-stream;base64,",
      "byteLength": 2784
    },
    {
      "uri": "data:application/octet-stream;base64,",
      "byteLength": 2784
    },
    {
      "uri": "data:application/octet-stream;base64,",
      "byteLength": 1856
    },
    {
      "uri": "data:application/octet-stream;base64,",
      "byteLength": 3096
    },
    {
      "uri": "data:application/octet-stream;base64,",
      "byteLength": 3072
    },
    {
      "uri": "data:application/octet-stream;base64,",
      "byteLength": 3096
    },
    {
      "uri": "data:application/octet-stream;base64,",
      "byteLength": 2064
    },
    {
      "uri": "data:application/octet-stream;base64,",
      "byteLength": 2808
    },
    {
      "uri": "data:application/octet-stream;base64,",
      "byteLength": 2784
    },
    {
      "uri": "data:application/octet-stream;base64,",
      "byteLength": 2808
    },
    {
      "uri": "data:application/octet-stream;base64,",
      "byteLength": 1872
    },
    {
      "uri": "data:application/octet-stream;base64,",
      "byteLength": 3072
    },
    {
      "uri": "data:application/octet-stream;base64,",
      "byteLength": 3072
    },
    {
      "uri": "data:application/octet-stream;base64,",
      "byteLength": 3072
    },
    {
      "uri": "data:application/octet-stream;base64,",
      "byteLength": 2048
    }
  ],
  "bufferViews": [
    {
      "buffer": 0,
      "byteLength": 2784,
      "target": 34962
    },
    {
      "buffer": 1,
      "byteLength": 2784,
      "target": 34963
    },
    {
      "buffer": 2,
      "byteLength": 2784,
      "target": 34962
    },
    {
      "buffer": 3,
      "byteLength": 1856,
      "target": 34962
    },
    {
      "buffer": 4,
      "byteLength": 3096,
      "target": 34962
    },
    {
      "buffer": 5,
      "byteLength": 3072,
      "target": 34963
    },
    {
      "buffer": 6,
      "byteLength": 3096,
      "target": 34962
    },
    {
      "buffer": 7,
      "byteLength": 2064,
      "target": 34962
    },
    {
      "buffer": 8,
      "byteLength": 2808,
      "target": 34962
    },
    {
      "buffer": 9,
      "byteLength": 2784,
      "target": 34963
    },
    {
      "buffer": 10,
      "byteLength": 2808,
      "target": 34962
    },
    {
      "buffer": 11,
      "byteLength": 1872,
      "target": 34962
    },
    {
      "buffer": 12,
      "byteLength": 3072,
      "target": 34962
    },
    {
      "buffer": 13,
      "byteLength": 3072,
      "target": 34963
    },
    {
      "buffer": 14,
      "byteLength": 3072,
      "target": 34962
    },
    {
      "buffer": 15,
      "byteLength": 2048,
      "target": 34962
    },
    {
      "buffer": 16,
      "byteLength": 2784,
      "target": 34962
    },
    {
      "buffer": 17,
      "byteLength": 2784,
      "target": 34963
    },
    {
      "buffer": 18,
      "byteLength": 2784,
      "target": 34962
    },
    {
      "buffer": 19,
      "byteLength": 1856,
      "target": 34962
    },
    {
      "buffer": 20,
      "byteLength": 3096,
      "target": 34962
    },
    {
      "buffer": 21,
      "byteLength": 3072,
      "target": 34963
    },
    {
      "buffer": 22,
      "byteLength": 3096,
      "target": 34962
    },
    {
      "buffer": 23,
      "byteLength": 2064,
      "target": 34962
    },
    {
      "buffer": 24,
      "byteLength": 2808,
      "target": 34962
    },
    {
      "buffer": 25,
      "byteLength": 2784,
      "target": 34963
    },
    {
      "buffer": 26,
      "byteLength": 2808,
      "target": 34962
    },
    {
      "buffer": 27,
      "byteLength": 1872,
      "target": 34962
    },
    {
      "buffer": 28,
      "byteLength": 3072,
      "target": 34962
    },
    {
      "buffer": 29,
      "byteLength": 3072,
      "target": 34963
    },
    {
      "buffer": 30,
      "byteLength": 3072,
      "target": 34962
    },
    {
      "buffer": 31,
      "byteLength": 2048,
      "target": 34962
    }
  ],
  "materials": [
    {
      "pbrMetallicRoughness": {
        "baseColorFactor": [
          0.4117647,
          0.4117647,
          0.4117647,
          1.0
        ]
      }
    }
  ],
  "meshes": [
    {
      "primitives": [
        {
          "attributes": {
            "POSITION": 0,
            "NORMAL": 2,
            "TEXCOORD_0": 3
          },
          "indices": 1,
          "material": 0
        },
        {
          "attributes": {
            "POSITION": 4,
            "NORMAL": 6,
            "TEXCOORD_0": 7
          },
          "indices": 5,
          "material": 0
        },
        {
          "attributes": {
            "POSITION": 8,
            "NORMAL": 10,
            "TEXCOORD_0": 11
          },
          "indices": 9,
          "material": 0
        },
        {
          "attributes": {
            "POSITION": 12,
            "NORMAL": 14,
            "TEXCOORD_0": 15
          },
          "indices": 13,
          "material": 0
        }
      ]
    },
    {
      "primitives": [
        {
          "attributes": {
            "POSITION": 16,
            "NORMAL": 18,
            "TEXCOORD_0": 19
          },
          "indices": 17,
          "material": 0
        },
        {
          "attributes": {
            "POSITION": 20,
            "NORMAL": 22,
            "TEXCOORD_0": 23
          },
          "indices": 21,
          "material": 0
        },
        {
          "attributes": {
            "POSITION": 24,
            "NORMAL": 26,
            "TEXCOORD_0": 27
          },
          "indices": 25,
          "material": 0
        },
        {
          "attributes": {
            "POSITION": 28,
            "NORMAL": 30,
            "TEXCOORD_0": 31
          },
          "indices": 29,
          "material": 0
        }
      ]
    }
  ],
  "nodes": [
    {
      "mesh": 0
    },
    {
      "mesh": 1
    }
  ],
  "samplers": [
    {
      "magFilter": 9729,
      "minFilter": 9729
    }
  ],
  "scene": 0,
  "scenes": [
    {
      "nodes": [
        0,
        1
      ],
      "extensions": {}
    }
  ],
  "extensions": {}
}